<mxfile host="app.diagrams.net" modified="2023-02-19T18:55:39.679Z" agent="5.0 (X11)" etag="7-3oFboknTCT95GdXfaS" version="20.8.20" type="github">
  <diagram name="Gaming" id="bxgiygMoMi77h8SDAmmC">
    <mxGraphModel dx="782" dy="1119" grid="1" gridSize="10" guides="1" tooltips="1" connect="1" arrows="1" fold="1" page="0" pageScale="1" pageWidth="827" pageHeight="1169" math="0" shadow="0">
      <root>
        <mxCell id="LT-kfasHor7iDB0tDRMl-0" />
        <mxCell id="LT-kfasHor7iDB0tDRMl-1" parent="LT-kfasHor7iDB0tDRMl-0" />
        <mxCell id="LT-kfasHor7iDB0tDRMl-2" value="Q" style="whiteSpace=wrap;html=1;aspect=fixed;fontSize=17;fontFamily=Verdana;fontStyle=1;fontColor=#AFB9C7;fillColor=#383E47;rounded=1;" parent="LT-kfasHor7iDB0tDRMl-1" vertex="1">
          <mxGeometry x="150" y="137" width="40" height="40" as="geometry" />
        </mxCell>
        <mxCell id="LT-kfasHor7iDB0tDRMl-3" value="W" style="whiteSpace=wrap;html=1;aspect=fixed;fontSize=17;fontFamily=Verdana;fontStyle=1;fontColor=#AFB9C7;fillColor=#383E47;rounded=1;" parent="LT-kfasHor7iDB0tDRMl-1" vertex="1">
          <mxGeometry x="190" y="112" width="40" height="40" as="geometry" />
        </mxCell>
        <mxCell id="LT-kfasHor7iDB0tDRMl-4" value="F" style="whiteSpace=wrap;html=1;aspect=fixed;fontSize=17;fontFamily=Verdana;fontStyle=1;fontColor=#AFB9C7;fillColor=#383E47;rounded=1;" parent="LT-kfasHor7iDB0tDRMl-1" vertex="1">
          <mxGeometry x="230" y="97" width="40" height="40" as="geometry" />
        </mxCell>
        <mxCell id="LT-kfasHor7iDB0tDRMl-5" value="P" style="whiteSpace=wrap;html=1;aspect=fixed;fontSize=17;fontFamily=Verdana;fontStyle=1;fontColor=#AFB9C7;fillColor=#383E47;rounded=1;" parent="LT-kfasHor7iDB0tDRMl-1" vertex="1">
          <mxGeometry x="270" y="112" width="40" height="40" as="geometry" />
        </mxCell>
        <mxCell id="LT-kfasHor7iDB0tDRMl-6" value="B" style="whiteSpace=wrap;html=1;aspect=fixed;fontSize=17;fontFamily=Verdana;fontStyle=1;fontColor=#AFB9C7;fillColor=#383E47;rounded=1;" parent="LT-kfasHor7iDB0tDRMl-1" vertex="1">
          <mxGeometry x="310" y="120" width="40" height="40" as="geometry" />
        </mxCell>
        <mxCell id="LT-kfasHor7iDB0tDRMl-7" value="A" style="whiteSpace=wrap;html=1;aspect=fixed;fontSize=17;fontFamily=Verdana;fontStyle=1;fontColor=#302316;fillColor=#FFB86C;rounded=1;strokeColor=#D79B00;" parent="LT-kfasHor7iDB0tDRMl-1" vertex="1">
          <mxGeometry x="150" y="177" width="40" height="40" as="geometry" />
        </mxCell>
        <mxCell id="LT-kfasHor7iDB0tDRMl-8" value="R" style="whiteSpace=wrap;html=1;aspect=fixed;fontSize=17;fontFamily=Verdana;fontStyle=1;fontColor=#302316;fillColor=#FFB86C;rounded=1;strokeColor=#D79B00;" parent="LT-kfasHor7iDB0tDRMl-1" vertex="1">
          <mxGeometry x="190" y="152" width="40" height="40" as="geometry" />
        </mxCell>
        <mxCell id="LT-kfasHor7iDB0tDRMl-9" value="S" style="whiteSpace=wrap;html=1;aspect=fixed;fontSize=17;fontFamily=Verdana;fontStyle=1;fontColor=#302316;fillColor=#FFB86C;rounded=1;strokeColor=#D79B00;" parent="LT-kfasHor7iDB0tDRMl-1" vertex="1">
          <mxGeometry x="230" y="137" width="40" height="40" as="geometry" />
        </mxCell>
        <mxCell id="LT-kfasHor7iDB0tDRMl-10" value="T" style="whiteSpace=wrap;html=1;aspect=fixed;fontSize=17;fontFamily=Verdana;fontStyle=1;fontColor=#302316;fillColor=#FFB86C;rounded=1;strokeColor=#D79B00;" parent="LT-kfasHor7iDB0tDRMl-1" vertex="1">
          <mxGeometry x="270" y="152" width="40" height="40" as="geometry" />
        </mxCell>
        <mxCell id="LT-kfasHor7iDB0tDRMl-11" value="G" style="whiteSpace=wrap;html=1;aspect=fixed;fontSize=17;fontFamily=Verdana;fontStyle=1;fontColor=#AFB9C7;fillColor=#383E47;rounded=1;" parent="LT-kfasHor7iDB0tDRMl-1" vertex="1">
          <mxGeometry x="310" y="160" width="40" height="40" as="geometry" />
        </mxCell>
        <mxCell id="LT-kfasHor7iDB0tDRMl-12" value="Z" style="whiteSpace=wrap;html=1;aspect=fixed;fontSize=17;fontFamily=Verdana;fontStyle=1;fontColor=#AFB9C7;fillColor=#383E47;rounded=1;" parent="LT-kfasHor7iDB0tDRMl-1" vertex="1">
          <mxGeometry x="150" y="217" width="40" height="40" as="geometry" />
        </mxCell>
        <mxCell id="LT-kfasHor7iDB0tDRMl-13" value="X" style="whiteSpace=wrap;html=1;aspect=fixed;fontSize=17;fontFamily=Verdana;fontStyle=1;fontColor=#AFB9C7;fillColor=#383E47;rounded=1;" parent="LT-kfasHor7iDB0tDRMl-1" vertex="1">
          <mxGeometry x="190" y="192" width="40" height="40" as="geometry" />
        </mxCell>
        <mxCell id="LT-kfasHor7iDB0tDRMl-14" value="C" style="whiteSpace=wrap;html=1;aspect=fixed;fontSize=17;fontFamily=Verdana;fontStyle=1;fontColor=#AFB9C7;fillColor=#383E47;rounded=1;" parent="LT-kfasHor7iDB0tDRMl-1" vertex="1">
          <mxGeometry x="230" y="177" width="40" height="40" as="geometry" />
        </mxCell>
        <mxCell id="LT-kfasHor7iDB0tDRMl-15" value="D" style="whiteSpace=wrap;html=1;aspect=fixed;fontSize=17;fontFamily=Verdana;fontStyle=1;fontColor=#AFB9C7;fillColor=#383E47;rounded=1;" parent="LT-kfasHor7iDB0tDRMl-1" vertex="1">
          <mxGeometry x="270" y="192" width="40" height="40" as="geometry" />
        </mxCell>
        <mxCell id="LT-kfasHor7iDB0tDRMl-16" value="V" style="whiteSpace=wrap;html=1;aspect=fixed;fontSize=17;fontFamily=Verdana;fontStyle=1;fontColor=#AFB9C7;fillColor=#383E47;rounded=1;" parent="LT-kfasHor7iDB0tDRMl-1" vertex="1">
          <mxGeometry x="310" y="200" width="40" height="40" as="geometry" />
        </mxCell>
        <mxCell id="LT-kfasHor7iDB0tDRMl-17" value="Sym" style="whiteSpace=wrap;html=1;aspect=fixed;rotation=15;fontSize=17;fontFamily=Verdana;fontStyle=1;fillColor=#a20025;strokeColor=#6F0000;fontColor=#ffffff;rounded=1;" parent="LT-kfasHor7iDB0tDRMl-1" vertex="1">
          <mxGeometry x="290" y="246" width="40" height="40" as="geometry" />
        </mxCell>
        <mxCell id="LT-kfasHor7iDB0tDRMl-18" value="Spc" style="whiteSpace=wrap;html=1;aspect=fixed;rotation=30;fontSize=17;fontFamily=Verdana;fontStyle=1;fontColor=#AFB9C7;fillColor=#383E47;rounded=1;align=center;verticalAlign=middle;" parent="LT-kfasHor7iDB0tDRMl-1" vertex="1">
          <mxGeometry x="338" y="264" width="40" height="40" as="geometry" />
        </mxCell>
        <mxCell id="LT-kfasHor7iDB0tDRMl-19" value="J" style="whiteSpace=wrap;html=1;aspect=fixed;fontSize=17;fontFamily=Verdana;fontStyle=1;fontColor=#AFB9C7;fillColor=#383E47;rounded=1;" parent="LT-kfasHor7iDB0tDRMl-1" vertex="1">
          <mxGeometry x="478" y="120" width="40" height="40" as="geometry" />
        </mxCell>
        <mxCell id="LT-kfasHor7iDB0tDRMl-20" value="U" style="whiteSpace=wrap;html=1;aspect=fixed;fontSize=17;fontFamily=Verdana;fontStyle=1;fontColor=#AFB9C7;fillColor=#383E47;rounded=1;" parent="LT-kfasHor7iDB0tDRMl-1" vertex="1">
          <mxGeometry x="558" y="97" width="40" height="40" as="geometry" />
        </mxCell>
        <mxCell id="LT-kfasHor7iDB0tDRMl-21" value="Y" style="whiteSpace=wrap;html=1;aspect=fixed;fontSize=17;fontFamily=Verdana;fontStyle=1;fontColor=#AFB9C7;fillColor=#383E47;rounded=1;" parent="LT-kfasHor7iDB0tDRMl-1" vertex="1">
          <mxGeometry x="598" y="112" width="40" height="40" as="geometry" />
        </mxCell>
        <mxCell id="LT-kfasHor7iDB0tDRMl-22" value="del" style="whiteSpace=wrap;html=1;aspect=fixed;fontSize=17;fontFamily=Verdana;fontStyle=1;fontColor=#AFB9C7;fillColor=#383E47;rounded=1;" parent="LT-kfasHor7iDB0tDRMl-1" vertex="1">
          <mxGeometry x="638" y="137" width="40" height="40" as="geometry" />
        </mxCell>
        <mxCell id="LT-kfasHor7iDB0tDRMl-23" value="M" style="whiteSpace=wrap;html=1;aspect=fixed;fontSize=17;fontFamily=Verdana;fontStyle=1;fontColor=#AFB9C7;fillColor=#383E47;rounded=1;" parent="LT-kfasHor7iDB0tDRMl-1" vertex="1">
          <mxGeometry x="478" y="160" width="40" height="40" as="geometry" />
        </mxCell>
        <mxCell id="LT-kfasHor7iDB0tDRMl-24" value="N" style="whiteSpace=wrap;html=1;aspect=fixed;fontSize=17;fontFamily=Verdana;fontStyle=1;fontColor=#302316;fillColor=#FFB86C;rounded=1;strokeColor=#D79B00;" parent="LT-kfasHor7iDB0tDRMl-1" vertex="1">
          <mxGeometry x="518" y="152" width="40" height="40" as="geometry" />
        </mxCell>
        <mxCell id="LT-kfasHor7iDB0tDRMl-25" value="E" style="whiteSpace=wrap;html=1;aspect=fixed;fontSize=17;fontFamily=Verdana;fontStyle=1;fontColor=#302316;fillColor=#FFB86C;rounded=1;strokeColor=#D79B00;" parent="LT-kfasHor7iDB0tDRMl-1" vertex="1">
          <mxGeometry x="558" y="137" width="40" height="40" as="geometry" />
        </mxCell>
        <mxCell id="LT-kfasHor7iDB0tDRMl-26" value="I" style="whiteSpace=wrap;html=1;aspect=fixed;fontSize=17;fontFamily=Verdana;fontStyle=1;fontColor=#302316;fillColor=#FFB86C;rounded=1;strokeColor=#D79B00;" parent="LT-kfasHor7iDB0tDRMl-1" vertex="1">
          <mxGeometry x="598" y="152" width="40" height="40" as="geometry" />
        </mxCell>
        <mxCell id="LT-kfasHor7iDB0tDRMl-27" value="O" style="whiteSpace=wrap;html=1;aspect=fixed;fontSize=17;fontFamily=Verdana;fontStyle=1;fontColor=#302316;fillColor=#FFB86C;rounded=1;strokeColor=#D79B00;" parent="LT-kfasHor7iDB0tDRMl-1" vertex="1">
          <mxGeometry x="638" y="177" width="40" height="40" as="geometry" />
        </mxCell>
        <mxCell id="LT-kfasHor7iDB0tDRMl-28" value="K" style="whiteSpace=wrap;html=1;aspect=fixed;fontSize=17;fontFamily=Verdana;fontStyle=1;fontColor=#AFB9C7;fillColor=#383E47;rounded=1;" parent="LT-kfasHor7iDB0tDRMl-1" vertex="1">
          <mxGeometry x="478" y="200" width="40" height="40" as="geometry" />
        </mxCell>
        <mxCell id="LT-kfasHor7iDB0tDRMl-29" value="H" style="whiteSpace=wrap;html=1;aspect=fixed;fontSize=17;fontFamily=Verdana;fontStyle=1;fontColor=#AFB9C7;fillColor=#383E47;rounded=1;" parent="LT-kfasHor7iDB0tDRMl-1" vertex="1">
          <mxGeometry x="518" y="192" width="40" height="40" as="geometry" />
        </mxCell>
        <mxCell id="LT-kfasHor7iDB0tDRMl-30" value="," style="whiteSpace=wrap;html=1;aspect=fixed;fontSize=17;fontFamily=Verdana;fontStyle=1;fontColor=#AFB9C7;fillColor=#383E47;rounded=1;" parent="LT-kfasHor7iDB0tDRMl-1" vertex="1">
          <mxGeometry x="558" y="177" width="40" height="40" as="geometry" />
        </mxCell>
        <mxCell id="LT-kfasHor7iDB0tDRMl-31" value="." style="whiteSpace=wrap;html=1;aspect=fixed;fontSize=17;fontFamily=Verdana;fontStyle=1;fontColor=#AFB9C7;fillColor=#383E47;rounded=1;" parent="LT-kfasHor7iDB0tDRMl-1" vertex="1">
          <mxGeometry x="598" y="192" width="40" height="40" as="geometry" />
        </mxCell>
        <mxCell id="LT-kfasHor7iDB0tDRMl-32" value="Ent" style="whiteSpace=wrap;html=1;aspect=fixed;fontSize=17;fontFamily=Verdana;fontStyle=1;fontColor=#AFB9C7;fillColor=#383E47;rounded=1;" parent="LT-kfasHor7iDB0tDRMl-1" vertex="1">
          <mxGeometry x="638" y="217" width="40" height="40" as="geometry" />
        </mxCell>
        <mxCell id="LT-kfasHor7iDB0tDRMl-33" value="fnc&lt;br&gt;nav" style="whiteSpace=wrap;html=1;aspect=fixed;rotation=-15;fontSize=17;fontFamily=Verdana;fontStyle=1;fillColor=#1ba1e2;strokeColor=#006EAF;fontColor=#ffffff;rounded=1;" parent="LT-kfasHor7iDB0tDRMl-1" vertex="1">
          <mxGeometry x="498" y="246" width="40" height="40" as="geometry" />
        </mxCell>
        <mxCell id="LT-kfasHor7iDB0tDRMl-34" value="&lt;b&gt;Base&lt;/b&gt;" style="rounded=0;whiteSpace=wrap;html=1;fontFamily=Verdana;fontSize=17;fontColor=#AFB9C7;fillColor=#383E47;" parent="LT-kfasHor7iDB0tDRMl-1" vertex="1">
          <mxGeometry x="310" y="67" width="210" height="30" as="geometry" />
        </mxCell>
        <mxCell id="LT-kfasHor7iDB0tDRMl-35" value="&quot;" style="whiteSpace=wrap;html=1;aspect=fixed;fontSize=17;fontFamily=Verdana;fontStyle=1;fontColor=#AFB9C7;fillColor=#383E47;rounded=1;strokeColor=default;" parent="LT-kfasHor7iDB0tDRMl-1" vertex="1">
          <mxGeometry x="150" y="418" width="40" height="40" as="geometry" />
        </mxCell>
        <mxCell id="LT-kfasHor7iDB0tDRMl-36" value="@" style="whiteSpace=wrap;html=1;aspect=fixed;fontSize=17;fontFamily=Verdana;fontStyle=1;fontColor=#AFB9C7;fillColor=#383E47;rounded=1;" parent="LT-kfasHor7iDB0tDRMl-1" vertex="1">
          <mxGeometry x="190" y="393" width="40" height="40" as="geometry" />
        </mxCell>
        <mxCell id="LT-kfasHor7iDB0tDRMl-37" value="!" style="whiteSpace=wrap;html=1;aspect=fixed;fontSize=17;fontFamily=Verdana;fontStyle=1;fontColor=#AFB9C7;fillColor=#383E47;rounded=1;" parent="LT-kfasHor7iDB0tDRMl-1" vertex="1">
          <mxGeometry x="230" y="378" width="40" height="40" as="geometry" />
        </mxCell>
        <mxCell id="LT-kfasHor7iDB0tDRMl-38" value="+" style="whiteSpace=wrap;html=1;aspect=fixed;fontSize=17;fontFamily=Verdana;fontStyle=1;fontColor=#AFB9C7;fillColor=#383E47;rounded=1;" parent="LT-kfasHor7iDB0tDRMl-1" vertex="1">
          <mxGeometry x="270" y="393" width="40" height="40" as="geometry" />
        </mxCell>
        <mxCell id="LT-kfasHor7iDB0tDRMl-39" value="\" style="whiteSpace=wrap;html=1;aspect=fixed;fontSize=17;fontFamily=Verdana;fontStyle=1;fontColor=#AFB9C7;fillColor=#383E47;rounded=1;" parent="LT-kfasHor7iDB0tDRMl-1" vertex="1">
          <mxGeometry x="310" y="401" width="40" height="40" as="geometry" />
        </mxCell>
        <mxCell id="LT-kfasHor7iDB0tDRMl-40" value="&#39;" style="whiteSpace=wrap;html=1;aspect=fixed;fontSize=17;fontFamily=Verdana;fontStyle=1;fontColor=#302316;fillColor=#FFB86C;rounded=1;strokeColor=#D79B00;" parent="LT-kfasHor7iDB0tDRMl-1" vertex="1">
          <mxGeometry x="150" y="458" width="40" height="40" as="geometry" />
        </mxCell>
        <mxCell id="LT-kfasHor7iDB0tDRMl-41" value="&amp;amp;" style="whiteSpace=wrap;html=1;aspect=fixed;fontSize=17;fontFamily=Verdana;fontStyle=1;fontColor=#302316;fillColor=#FFB86C;rounded=1;strokeColor=#D79B00;" parent="LT-kfasHor7iDB0tDRMl-1" vertex="1">
          <mxGeometry x="190" y="433" width="40" height="40" as="geometry" />
        </mxCell>
        <mxCell id="LT-kfasHor7iDB0tDRMl-42" value="*" style="whiteSpace=wrap;html=1;aspect=fixed;fontSize=17;fontFamily=Verdana;fontStyle=1;fontColor=#302316;fillColor=#FFB86C;rounded=1;strokeColor=#D79B00;" parent="LT-kfasHor7iDB0tDRMl-1" vertex="1">
          <mxGeometry x="230" y="418" width="40" height="40" as="geometry" />
        </mxCell>
        <mxCell id="LT-kfasHor7iDB0tDRMl-43" value="´" style="whiteSpace=wrap;html=1;aspect=fixed;fontSize=17;fontFamily=Verdana;fontStyle=1;fontColor=#302316;fillColor=#FFB86C;rounded=1;strokeColor=#D79B00;" parent="LT-kfasHor7iDB0tDRMl-1" vertex="1">
          <mxGeometry x="270" y="433" width="40" height="40" as="geometry" />
        </mxCell>
        <mxCell id="LT-kfasHor7iDB0tDRMl-44" value="[" style="whiteSpace=wrap;html=1;aspect=fixed;fontSize=17;fontFamily=Verdana;fontStyle=1;fontColor=#AFB9C7;fillColor=#383E47;rounded=1;" parent="LT-kfasHor7iDB0tDRMl-1" vertex="1">
          <mxGeometry x="310" y="441" width="40" height="40" as="geometry" />
        </mxCell>
        <mxCell id="LT-kfasHor7iDB0tDRMl-45" value="%" style="whiteSpace=wrap;html=1;aspect=fixed;fontSize=17;fontFamily=Verdana;fontStyle=1;fontColor=#AFB9C7;fillColor=#383E47;rounded=1;" parent="LT-kfasHor7iDB0tDRMl-1" vertex="1">
          <mxGeometry x="150" y="498" width="40" height="40" as="geometry" />
        </mxCell>
        <mxCell id="LT-kfasHor7iDB0tDRMl-46" value="#" style="whiteSpace=wrap;html=1;aspect=fixed;fontSize=17;fontFamily=Verdana;fontStyle=1;fontColor=#AFB9C7;fillColor=#383E47;rounded=1;" parent="LT-kfasHor7iDB0tDRMl-1" vertex="1">
          <mxGeometry x="190" y="473" width="40" height="40" as="geometry" />
        </mxCell>
        <mxCell id="LT-kfasHor7iDB0tDRMl-47" value="^" style="whiteSpace=wrap;html=1;aspect=fixed;fontSize=17;fontFamily=Verdana;fontStyle=1;fontColor=#AFB9C7;fillColor=#383E47;rounded=1;" parent="LT-kfasHor7iDB0tDRMl-1" vertex="1">
          <mxGeometry x="230" y="458" width="40" height="40" as="geometry" />
        </mxCell>
        <mxCell id="LT-kfasHor7iDB0tDRMl-48" value="$" style="whiteSpace=wrap;html=1;aspect=fixed;fontSize=17;fontFamily=Verdana;fontStyle=1;fontColor=#AFB9C7;fillColor=#383E47;rounded=1;" parent="LT-kfasHor7iDB0tDRMl-1" vertex="1">
          <mxGeometry x="270" y="473" width="40" height="40" as="geometry" />
        </mxCell>
        <mxCell id="LT-kfasHor7iDB0tDRMl-49" value="]" style="whiteSpace=wrap;html=1;aspect=fixed;fontSize=17;fontFamily=Verdana;fontStyle=1;fontColor=#AFB9C7;fillColor=#383E47;rounded=1;" parent="LT-kfasHor7iDB0tDRMl-1" vertex="1">
          <mxGeometry x="310" y="481" width="40" height="40" as="geometry" />
        </mxCell>
        <mxCell id="LT-kfasHor7iDB0tDRMl-50" value="&lt;font color=&quot;#afb9c7&quot;&gt;/&lt;/font&gt;" style="whiteSpace=wrap;html=1;aspect=fixed;rotation=15;fontSize=14;fontFamily=Verdana;fontStyle=1;fontColor=#ffffff;fillColor=#383E47;strokeColor=#F0F0F0;rounded=1;" parent="LT-kfasHor7iDB0tDRMl-1" vertex="1">
          <mxGeometry x="290" y="527" width="40" height="40" as="geometry" />
        </mxCell>
        <mxCell id="LT-kfasHor7iDB0tDRMl-51" value="(" style="whiteSpace=wrap;html=1;aspect=fixed;fontSize=17;fontFamily=Verdana;fontStyle=1;fontColor=#AFB9C7;fillColor=#383E47;rounded=1;" parent="LT-kfasHor7iDB0tDRMl-1" vertex="1">
          <mxGeometry x="478" y="401" width="40" height="40" as="geometry" />
        </mxCell>
        <mxCell id="LT-kfasHor7iDB0tDRMl-52" value=")" style="whiteSpace=wrap;html=1;aspect=fixed;fontSize=17;fontFamily=Verdana;fontStyle=1;fontColor=#AFB9C7;fillColor=#383E47;rounded=1;" parent="LT-kfasHor7iDB0tDRMl-1" vertex="1">
          <mxGeometry x="518" y="393" width="40" height="40" as="geometry" />
        </mxCell>
        <mxCell id="LT-kfasHor7iDB0tDRMl-53" value="_" style="whiteSpace=wrap;html=1;aspect=fixed;fontSize=17;fontFamily=Verdana;fontStyle=1;fontColor=#AFB9C7;fillColor=#383E47;rounded=1;" parent="LT-kfasHor7iDB0tDRMl-1" vertex="1">
          <mxGeometry x="558" y="378" width="40" height="40" as="geometry" />
        </mxCell>
        <mxCell id="LT-kfasHor7iDB0tDRMl-54" value="?" style="whiteSpace=wrap;html=1;aspect=fixed;fontSize=17;fontFamily=Verdana;fontStyle=1;fontColor=#AFB9C7;fillColor=#383E47;rounded=1;" parent="LT-kfasHor7iDB0tDRMl-1" vertex="1">
          <mxGeometry x="598" y="393" width="40" height="40" as="geometry" />
        </mxCell>
        <mxCell id="LT-kfasHor7iDB0tDRMl-55" value="Å" style="whiteSpace=wrap;html=1;aspect=fixed;fontSize=17;fontFamily=Verdana;fontStyle=1;fontColor=#AFB9C7;fillColor=#383E47;rounded=1;" parent="LT-kfasHor7iDB0tDRMl-1" vertex="1">
          <mxGeometry x="638" y="418" width="40" height="40" as="geometry" />
        </mxCell>
        <mxCell id="LT-kfasHor7iDB0tDRMl-56" value="-" style="whiteSpace=wrap;html=1;aspect=fixed;fontSize=17;fontFamily=Verdana;fontStyle=1;fontColor=#AFB9C7;fillColor=#383E47;rounded=1;" parent="LT-kfasHor7iDB0tDRMl-1" vertex="1">
          <mxGeometry x="478" y="441" width="40" height="40" as="geometry" />
        </mxCell>
        <mxCell id="LT-kfasHor7iDB0tDRMl-57" value="~" style="whiteSpace=wrap;html=1;aspect=fixed;fontSize=17;fontFamily=Verdana;fontStyle=1;fontColor=#302316;fillColor=#FFB86C;rounded=1;strokeColor=#D79B00;" parent="LT-kfasHor7iDB0tDRMl-1" vertex="1">
          <mxGeometry x="518" y="433" width="40" height="40" as="geometry" />
        </mxCell>
        <mxCell id="LT-kfasHor7iDB0tDRMl-58" value="=" style="whiteSpace=wrap;html=1;aspect=fixed;fontSize=17;fontFamily=Verdana;fontStyle=1;fontColor=#302316;fillColor=#FFB86C;rounded=1;strokeColor=#D79B00;" parent="LT-kfasHor7iDB0tDRMl-1" vertex="1">
          <mxGeometry x="558" y="418" width="40" height="40" as="geometry" />
        </mxCell>
        <mxCell id="LT-kfasHor7iDB0tDRMl-59" value="|" style="whiteSpace=wrap;html=1;aspect=fixed;fontSize=17;fontFamily=Verdana;fontStyle=1;fontColor=#302316;fillColor=#FFB86C;rounded=1;strokeColor=#D79B00;" parent="LT-kfasHor7iDB0tDRMl-1" vertex="1">
          <mxGeometry x="598" y="433" width="40" height="40" as="geometry" />
        </mxCell>
        <mxCell id="LT-kfasHor7iDB0tDRMl-60" value="Ä" style="whiteSpace=wrap;html=1;aspect=fixed;fontSize=17;fontFamily=Verdana;fontStyle=1;fontColor=#302316;fillColor=#FFB86C;rounded=1;strokeColor=#D79B00;" parent="LT-kfasHor7iDB0tDRMl-1" vertex="1">
          <mxGeometry x="638" y="458" width="40" height="40" as="geometry" />
        </mxCell>
        <mxCell id="LT-kfasHor7iDB0tDRMl-61" value="{" style="whiteSpace=wrap;html=1;aspect=fixed;fontSize=17;fontFamily=Verdana;fontStyle=1;fontColor=#AFB9C7;fillColor=#383E47;rounded=1;" parent="LT-kfasHor7iDB0tDRMl-1" vertex="1">
          <mxGeometry x="478" y="481" width="40" height="40" as="geometry" />
        </mxCell>
        <mxCell id="LT-kfasHor7iDB0tDRMl-62" value="}" style="whiteSpace=wrap;html=1;aspect=fixed;fontSize=17;fontFamily=Verdana;fontStyle=1;fontColor=#AFB9C7;fillColor=#383E47;rounded=1;" parent="LT-kfasHor7iDB0tDRMl-1" vertex="1">
          <mxGeometry x="518" y="473" width="40" height="40" as="geometry" />
        </mxCell>
        <mxCell id="LT-kfasHor7iDB0tDRMl-63" value="&amp;lt;" style="whiteSpace=wrap;html=1;aspect=fixed;fontSize=17;fontFamily=Verdana;fontStyle=1;fontColor=#AFB9C7;fillColor=#383E47;rounded=1;" parent="LT-kfasHor7iDB0tDRMl-1" vertex="1">
          <mxGeometry x="558" y="458" width="40" height="40" as="geometry" />
        </mxCell>
        <mxCell id="LT-kfasHor7iDB0tDRMl-64" value="&amp;gt;" style="whiteSpace=wrap;html=1;aspect=fixed;fontSize=17;fontFamily=Verdana;fontStyle=1;fontColor=#AFB9C7;fillColor=#383E47;rounded=1;" parent="LT-kfasHor7iDB0tDRMl-1" vertex="1">
          <mxGeometry x="598" y="473" width="40" height="40" as="geometry" />
        </mxCell>
        <mxCell id="LT-kfasHor7iDB0tDRMl-65" value="Ö" style="whiteSpace=wrap;html=1;aspect=fixed;fontSize=17;fontFamily=Verdana;fontStyle=1;fontColor=#AFB9C7;fillColor=#383E47;rounded=1;" parent="LT-kfasHor7iDB0tDRMl-1" vertex="1">
          <mxGeometry x="638" y="498" width="40" height="40" as="geometry" />
        </mxCell>
        <mxCell id="LT-kfasHor7iDB0tDRMl-66" value="&lt;font color=&quot;#ffffff&quot; style=&quot;font-size: 14px;&quot;&gt;&lt;br style=&quot;font-size: 14px;&quot;&gt;&lt;/font&gt;" style="whiteSpace=wrap;html=1;aspect=fixed;rotation=-15;fontSize=14;fontFamily=Verdana;fontStyle=1;fontColor=#333333;fillColor=#383E47;strokeColor=#F0F0F0;shadow=0;sketch=0;rounded=1;glass=0;labelBackgroundColor=none;" parent="LT-kfasHor7iDB0tDRMl-1" vertex="1">
          <mxGeometry x="498" y="527" width="40" height="40" as="geometry" />
        </mxCell>
        <mxCell id="LT-kfasHor7iDB0tDRMl-67" value="&lt;b&gt;fnc/nav&lt;/b&gt;" style="rounded=0;whiteSpace=wrap;html=1;fontFamily=Verdana;fontSize=17;fillColor=#1ba1e2;strokeColor=#006EAF;fontStyle=0;fontColor=#ffffff;" parent="LT-kfasHor7iDB0tDRMl-1" vertex="1">
          <mxGeometry x="310" y="620" width="210" height="30" as="geometry" />
        </mxCell>
        <mxCell id="LT-kfasHor7iDB0tDRMl-68" value="Tab" style="whiteSpace=wrap;html=1;aspect=fixed;fontSize=11;fontFamily=Verdana;fontStyle=1;fontColor=#AFB9C7;fillColor=#383E47;rounded=1;" parent="LT-kfasHor7iDB0tDRMl-1" vertex="1">
          <mxGeometry x="150" y="690" width="40" height="40" as="geometry" />
        </mxCell>
        <mxCell id="LT-kfasHor7iDB0tDRMl-69" value="F1" style="whiteSpace=wrap;html=1;aspect=fixed;fontSize=17;fontFamily=Verdana;fontStyle=1;fontColor=#AFB9C7;fillColor=#383E47;rounded=1;" parent="LT-kfasHor7iDB0tDRMl-1" vertex="1">
          <mxGeometry x="190" y="665" width="40" height="40" as="geometry" />
        </mxCell>
        <mxCell id="LT-kfasHor7iDB0tDRMl-70" value="F2" style="whiteSpace=wrap;html=1;aspect=fixed;fontSize=17;fontFamily=Verdana;fontStyle=1;fontColor=#AFB9C7;fillColor=#383E47;rounded=1;" parent="LT-kfasHor7iDB0tDRMl-1" vertex="1">
          <mxGeometry x="230" y="650" width="40" height="40" as="geometry" />
        </mxCell>
        <mxCell id="LT-kfasHor7iDB0tDRMl-71" value="F3" style="whiteSpace=wrap;html=1;aspect=fixed;fontSize=17;fontFamily=Verdana;fontStyle=1;fontColor=#AFB9C7;fillColor=#383E47;rounded=1;" parent="LT-kfasHor7iDB0tDRMl-1" vertex="1">
          <mxGeometry x="270" y="665" width="40" height="40" as="geometry" />
        </mxCell>
        <mxCell id="LT-kfasHor7iDB0tDRMl-72" value="F4" style="whiteSpace=wrap;html=1;aspect=fixed;fontSize=17;fontFamily=Verdana;fontStyle=1;fontColor=#AFB9C7;fillColor=#383E47;rounded=1;" parent="LT-kfasHor7iDB0tDRMl-1" vertex="1">
          <mxGeometry x="310" y="673" width="40" height="40" as="geometry" />
        </mxCell>
        <mxCell id="LT-kfasHor7iDB0tDRMl-73" value="F5" style="whiteSpace=wrap;html=1;aspect=fixed;fontSize=17;fontFamily=Verdana;fontStyle=1;fontColor=#AFB9C7;fillColor=#383E47;rounded=1;" parent="LT-kfasHor7iDB0tDRMl-1" vertex="1">
          <mxGeometry x="190" y="705" width="40" height="40" as="geometry" />
        </mxCell>
        <mxCell id="LT-kfasHor7iDB0tDRMl-74" value="F6" style="whiteSpace=wrap;html=1;aspect=fixed;fontSize=17;fontFamily=Verdana;fontStyle=1;fontColor=#AFB9C7;fillColor=#383E47;rounded=1;" parent="LT-kfasHor7iDB0tDRMl-1" vertex="1">
          <mxGeometry x="230" y="690" width="40" height="40" as="geometry" />
        </mxCell>
        <mxCell id="LT-kfasHor7iDB0tDRMl-75" value="F7" style="whiteSpace=wrap;html=1;aspect=fixed;fontSize=17;fontFamily=Verdana;fontStyle=1;fontColor=#AFB9C7;fillColor=#383E47;rounded=1;" parent="LT-kfasHor7iDB0tDRMl-1" vertex="1">
          <mxGeometry x="270" y="705" width="40" height="40" as="geometry" />
        </mxCell>
        <mxCell id="LT-kfasHor7iDB0tDRMl-76" value="F8" style="whiteSpace=wrap;html=1;aspect=fixed;fontSize=17;fontFamily=Verdana;fontStyle=1;fontColor=#AFB9C7;fillColor=#383E47;rounded=1;" parent="LT-kfasHor7iDB0tDRMl-1" vertex="1">
          <mxGeometry x="310" y="713" width="40" height="40" as="geometry" />
        </mxCell>
        <mxCell id="LT-kfasHor7iDB0tDRMl-77" value="caps" style="whiteSpace=wrap;html=1;aspect=fixed;fontSize=11;fontFamily=Verdana;fontStyle=1;fontColor=#AFB9C7;fillColor=#383E47;rounded=1;" parent="LT-kfasHor7iDB0tDRMl-1" vertex="1">
          <mxGeometry x="150" y="770" width="40" height="40" as="geometry" />
        </mxCell>
        <mxCell id="LT-kfasHor7iDB0tDRMl-78" value="F9" style="whiteSpace=wrap;html=1;aspect=fixed;fontSize=17;fontFamily=Verdana;fontStyle=1;fontColor=#AFB9C7;fillColor=#383E47;rounded=1;" parent="LT-kfasHor7iDB0tDRMl-1" vertex="1">
          <mxGeometry x="190" y="745" width="40" height="40" as="geometry" />
        </mxCell>
        <mxCell id="LT-kfasHor7iDB0tDRMl-79" value="F10" style="whiteSpace=wrap;html=1;aspect=fixed;fontSize=17;fontFamily=Verdana;fontStyle=1;fontColor=#AFB9C7;fillColor=#383E47;rounded=1;" parent="LT-kfasHor7iDB0tDRMl-1" vertex="1">
          <mxGeometry x="230" y="730" width="40" height="40" as="geometry" />
        </mxCell>
        <mxCell id="LT-kfasHor7iDB0tDRMl-80" value="F11" style="whiteSpace=wrap;html=1;aspect=fixed;fontSize=17;fontFamily=Verdana;fontStyle=1;fontColor=#AFB9C7;fillColor=#383E47;rounded=1;" parent="LT-kfasHor7iDB0tDRMl-1" vertex="1">
          <mxGeometry x="270" y="745" width="40" height="40" as="geometry" />
        </mxCell>
        <mxCell id="LT-kfasHor7iDB0tDRMl-81" value="F12" style="whiteSpace=wrap;html=1;aspect=fixed;fontSize=17;fontFamily=Verdana;fontStyle=1;fontColor=#AFB9C7;fillColor=#383E47;rounded=1;" parent="LT-kfasHor7iDB0tDRMl-1" vertex="1">
          <mxGeometry x="310" y="753" width="40" height="40" as="geometry" />
        </mxCell>
        <mxCell id="LT-kfasHor7iDB0tDRMl-82" value="&lt;span style=&quot;color: rgb(255, 255, 255);&quot;&gt;Ext&lt;/span&gt;" style="whiteSpace=wrap;html=1;aspect=fixed;rotation=15;fontSize=17;fontFamily=Verdana;fontStyle=1;fontColor=#333333;fillColor=#60A917;strokeColor=#2D7600;rounded=1;shadow=0;glass=0;sketch=0;" parent="LT-kfasHor7iDB0tDRMl-1" vertex="1">
          <mxGeometry x="290" y="799" width="40" height="40" as="geometry" />
        </mxCell>
        <mxCell id="LT-kfasHor7iDB0tDRMl-83" value="&lt;div&gt;&lt;font&gt;Spc&lt;/font&gt;&lt;/div&gt;&lt;div&gt;&lt;span style=&quot;font-family: &amp;quot;segoe ui emoji&amp;quot;, &amp;quot;apple color emoji&amp;quot;, &amp;quot;noto color emoji&amp;quot;; font-size: 14px;&quot;&gt;&lt;/span&gt;&lt;/div&gt;&lt;div&gt;&lt;span style=&quot;font-family: &amp;quot;segoe ui emoji&amp;quot;, &amp;quot;apple color emoji&amp;quot;, &amp;quot;noto color emoji&amp;quot;; font-size: 14px;&quot;&gt;&lt;/span&gt;&lt;/div&gt;" style="whiteSpace=wrap;html=1;aspect=fixed;rotation=30;fontSize=14;fontFamily=Verdana;fontStyle=1;fontColor=#AFB9C7;fillColor=#383E47;rounded=1;strokeColor=#F0F0F0;" parent="LT-kfasHor7iDB0tDRMl-1" vertex="1">
          <mxGeometry x="338" y="817" width="40" height="40" as="geometry" />
        </mxCell>
        <mxCell id="LT-kfasHor7iDB0tDRMl-84" value="home" style="whiteSpace=wrap;html=1;aspect=fixed;fontSize=11;fontFamily=Verdana;fontStyle=1;fontColor=#AFB9C7;fillColor=#383E47;rounded=1;" parent="LT-kfasHor7iDB0tDRMl-1" vertex="1">
          <mxGeometry x="478" y="673" width="40" height="40" as="geometry" />
        </mxCell>
        <mxCell id="LT-kfasHor7iDB0tDRMl-85" value="Pag&lt;br&gt;up" style="whiteSpace=wrap;html=1;aspect=fixed;fontSize=11;fontFamily=Verdana;fontStyle=1;fontColor=#AFB9C7;fillColor=#383E47;rounded=1;" parent="LT-kfasHor7iDB0tDRMl-1" vertex="1">
          <mxGeometry x="518" y="665" width="40" height="40" as="geometry" />
        </mxCell>
        <mxCell id="LT-kfasHor7iDB0tDRMl-86" value="&lt;span style=&quot;font-family: &amp;quot;segoe ui emoji&amp;quot;, &amp;quot;apple color emoji&amp;quot;, &amp;quot;noto color emoji&amp;quot;; font-size: 16px;&quot;&gt;↑&lt;/span&gt;" style="whiteSpace=wrap;html=1;aspect=fixed;fontSize=16;fontFamily=Verdana;fontStyle=1;fontColor=#AFB9C7;fillColor=#383E47;rounded=1;" parent="LT-kfasHor7iDB0tDRMl-1" vertex="1">
          <mxGeometry x="558" y="650" width="40" height="40" as="geometry" />
        </mxCell>
        <mxCell id="LT-kfasHor7iDB0tDRMl-87" value="Pag&lt;br&gt;down" style="whiteSpace=wrap;html=1;aspect=fixed;fontSize=11;fontFamily=Verdana;fontStyle=1;fontColor=#AFB9C7;fillColor=#383E47;rounded=1;" parent="LT-kfasHor7iDB0tDRMl-1" vertex="1">
          <mxGeometry x="598" y="665" width="40" height="40" as="geometry" />
        </mxCell>
        <mxCell id="LT-kfasHor7iDB0tDRMl-88" value="&lt;font style=&quot;font-size: 11px;&quot;&gt;del&lt;/font&gt;" style="whiteSpace=wrap;html=1;aspect=fixed;fontSize=11;fontFamily=Verdana;fontStyle=1;fontColor=#AFB9C7;fillColor=#383E47;rounded=1;" parent="LT-kfasHor7iDB0tDRMl-1" vertex="1">
          <mxGeometry x="638" y="690" width="40" height="40" as="geometry" />
        </mxCell>
        <mxCell id="LT-kfasHor7iDB0tDRMl-89" value="end" style="whiteSpace=wrap;html=1;aspect=fixed;fontSize=11;fontFamily=Verdana;fontStyle=1;fontColor=#AFB9C7;fillColor=#383E47;rounded=1;" parent="LT-kfasHor7iDB0tDRMl-1" vertex="1">
          <mxGeometry x="478" y="713" width="40" height="40" as="geometry" />
        </mxCell>
        <mxCell id="LT-kfasHor7iDB0tDRMl-90" value="&lt;span style=&quot;font-family: &amp;quot;segoe ui emoji&amp;quot;, &amp;quot;apple color emoji&amp;quot;, &amp;quot;noto color emoji&amp;quot;; font-size: 16px;&quot;&gt;←&lt;/span&gt;" style="whiteSpace=wrap;html=1;aspect=fixed;fontSize=16;fontFamily=Verdana;fontStyle=1;fontColor=#AFB9C7;fillColor=#383E47;rounded=1;" parent="LT-kfasHor7iDB0tDRMl-1" vertex="1">
          <mxGeometry x="518" y="705" width="40" height="40" as="geometry" />
        </mxCell>
        <mxCell id="LT-kfasHor7iDB0tDRMl-91" value="&lt;span style=&quot;font-family: &amp;quot;segoe ui emoji&amp;quot;, &amp;quot;apple color emoji&amp;quot;, &amp;quot;noto color emoji&amp;quot;; font-size: 16px;&quot;&gt;↓&lt;/span&gt;" style="whiteSpace=wrap;html=1;aspect=fixed;fontSize=16;fontFamily=Verdana;fontStyle=1;fontColor=#AFB9C7;fillColor=#383E47;rounded=1;" parent="LT-kfasHor7iDB0tDRMl-1" vertex="1">
          <mxGeometry x="558" y="690" width="40" height="40" as="geometry" />
        </mxCell>
        <mxCell id="LT-kfasHor7iDB0tDRMl-92" value="&lt;span style=&quot;font-family: &amp;quot;segoe ui emoji&amp;quot;, &amp;quot;apple color emoji&amp;quot;, &amp;quot;noto color emoji&amp;quot;; font-size: 16px;&quot;&gt;→&lt;/span&gt;" style="whiteSpace=wrap;html=1;aspect=fixed;fontSize=16;fontFamily=Verdana;fontStyle=1;fontColor=#AFB9C7;fillColor=#383E47;rounded=1;" parent="LT-kfasHor7iDB0tDRMl-1" vertex="1">
          <mxGeometry x="598" y="705" width="40" height="40" as="geometry" />
        </mxCell>
        <mxCell id="LT-kfasHor7iDB0tDRMl-93" value="vol+" style="whiteSpace=wrap;html=1;aspect=fixed;fontSize=11;fontFamily=Verdana;fontStyle=1;fontColor=#AFB9C7;fillColor=#383E47;rounded=1;" parent="LT-kfasHor7iDB0tDRMl-1" vertex="1">
          <mxGeometry x="638" y="730" width="40" height="40" as="geometry" />
        </mxCell>
        <mxCell id="LT-kfasHor7iDB0tDRMl-94" value="&lt;span style=&quot;font-size: 11px;&quot;&gt;Prev&lt;br&gt;track&lt;br&gt;&lt;/span&gt;" style="whiteSpace=wrap;html=1;aspect=fixed;fontSize=17;fontFamily=Verdana;fontStyle=1;fontColor=#AFB9C7;fillColor=#383E47;rounded=1;" parent="LT-kfasHor7iDB0tDRMl-1" vertex="1">
          <mxGeometry x="478" y="753" width="40" height="40" as="geometry" />
        </mxCell>
        <mxCell id="LT-kfasHor7iDB0tDRMl-95" value="&lt;span style=&quot;font-size: 11px;&quot;&gt;play/&lt;/span&gt;&lt;br style=&quot;font-size: 11px;&quot;&gt;&lt;span style=&quot;font-size: 11px;&quot;&gt;pause&lt;/span&gt;" style="whiteSpace=wrap;html=1;aspect=fixed;fontSize=17;fontFamily=Verdana;fontStyle=1;fontColor=#AFB9C7;fillColor=#383E47;rounded=1;" parent="LT-kfasHor7iDB0tDRMl-1" vertex="1">
          <mxGeometry x="518" y="745" width="40" height="40" as="geometry" />
        </mxCell>
        <mxCell id="LT-kfasHor7iDB0tDRMl-96" value="&lt;font style=&quot;font-size: 11px;&quot;&gt;next&lt;br&gt;track&lt;/font&gt;" style="whiteSpace=wrap;html=1;aspect=fixed;fontSize=17;fontFamily=Verdana;fontStyle=1;fontColor=#AFB9C7;fillColor=#383E47;rounded=1;" parent="LT-kfasHor7iDB0tDRMl-1" vertex="1">
          <mxGeometry x="558" y="730" width="40" height="40" as="geometry" />
        </mxCell>
        <mxCell id="LT-kfasHor7iDB0tDRMl-97" value="&lt;span style=&quot;font-size: 11px;&quot;&gt;mute&lt;/span&gt;" style="whiteSpace=wrap;html=1;aspect=fixed;fontSize=17;fontFamily=Verdana;fontStyle=1;fontColor=#AFB9C7;fillColor=#383E47;rounded=1;" parent="LT-kfasHor7iDB0tDRMl-1" vertex="1">
          <mxGeometry x="598" y="745" width="40" height="40" as="geometry" />
        </mxCell>
        <mxCell id="LT-kfasHor7iDB0tDRMl-98" value="vol-" style="whiteSpace=wrap;html=1;aspect=fixed;fontSize=11;fontFamily=Verdana;fontStyle=1;fontColor=#AFB9C7;fillColor=#383E47;rounded=1;" parent="LT-kfasHor7iDB0tDRMl-1" vertex="1">
          <mxGeometry x="638" y="770" width="40" height="40" as="geometry" />
        </mxCell>
        <mxCell id="LT-kfasHor7iDB0tDRMl-99" value="" style="whiteSpace=wrap;html=1;aspect=fixed;rotation=-30;fontSize=17;fontFamily=Verdana;fontStyle=1;fontColor=#AFB9C7;fillColor=#383E47;rounded=1;" parent="LT-kfasHor7iDB0tDRMl-1" vertex="1">
          <mxGeometry x="450" y="817" width="40" height="40" as="geometry" />
        </mxCell>
        <mxCell id="LT-kfasHor7iDB0tDRMl-100" value="fnc&lt;br style=&quot;font-size: 14px;&quot;&gt;nav" style="whiteSpace=wrap;html=1;aspect=fixed;rotation=-15;fontSize=14;fontFamily=Verdana;fontStyle=1;fontColor=#ffffff;fillColor=none;strokeColor=#F0F0F0;rounded=1;dashed=1;" parent="LT-kfasHor7iDB0tDRMl-1" vertex="1">
          <mxGeometry x="498" y="799" width="40" height="40" as="geometry" />
        </mxCell>
        <mxCell id="LT-kfasHor7iDB0tDRMl-101" value="sym" style="rounded=0;whiteSpace=wrap;html=1;fontFamily=Verdana;fontSize=17;fontStyle=1;fillColor=#a20025;strokeColor=#6F0000;fontColor=#ffffff;" parent="LT-kfasHor7iDB0tDRMl-1" vertex="1">
          <mxGeometry x="310" y="348" width="210" height="30" as="geometry" />
        </mxCell>
        <mxCell id="LT-kfasHor7iDB0tDRMl-102" style="edgeStyle=orthogonalEdgeStyle;rounded=1;orthogonalLoop=1;jettySize=auto;html=1;exitX=0.5;exitY=1;exitDx=0;exitDy=0;fontFamily=Verdana;fontSize=14;fontColor=#3399FF;strokeColor=#FF8000;" parent="LT-kfasHor7iDB0tDRMl-1" edge="1">
          <mxGeometry relative="1" as="geometry">
            <mxPoint x="210.49999999999977" y="890" as="sourcePoint" />
            <mxPoint x="210.49999999999977" y="890" as="targetPoint" />
          </mxGeometry>
        </mxCell>
        <mxCell id="LT-kfasHor7iDB0tDRMl-103" style="edgeStyle=orthogonalEdgeStyle;rounded=1;orthogonalLoop=1;jettySize=auto;html=1;fontSize=11;strokeColor=#6C8EBF;entryX=0.5;entryY=0;entryDx=0;entryDy=0;" parent="LT-kfasHor7iDB0tDRMl-1" source="LT-kfasHor7iDB0tDRMl-322" target="JH4h7ArU-uEL8mOP_6Qb-37" edge="1">
          <mxGeometry relative="1" as="geometry" />
        </mxCell>
        <mxCell id="LT-kfasHor7iDB0tDRMl-104" value="&lt;font style=&quot;font-size: 11px;&quot;&gt;Bootloader&lt;br&gt;(flash new firmware)&lt;/font&gt;" style="text;html=1;strokeColor=none;fillColor=none;align=center;verticalAlign=middle;whiteSpace=wrap;rounded=0;shadow=0;glass=0;sketch=0;fontFamily=Verdana;fontSize=14;fontColor=#3399FF;" parent="LT-kfasHor7iDB0tDRMl-1" vertex="1">
          <mxGeometry x="353.5" y="1389" width="120" height="40" as="geometry" />
        </mxCell>
        <mxCell id="LT-kfasHor7iDB0tDRMl-133" value="L" style="whiteSpace=wrap;html=1;aspect=fixed;fontSize=17;fontFamily=Verdana;fontStyle=1;fontColor=#AFB9C7;fillColor=#383E47;rounded=1;" parent="LT-kfasHor7iDB0tDRMl-1" vertex="1">
          <mxGeometry x="518" y="112" width="40" height="40" as="geometry" />
        </mxCell>
        <mxCell id="LT-kfasHor7iDB0tDRMl-286" value="1" style="whiteSpace=wrap;html=1;aspect=fixed;fontSize=17;fontFamily=Verdana;fontStyle=1;fontColor=#AFB9C7;fillColor=#383E47;rounded=1;" parent="LT-kfasHor7iDB0tDRMl-1" vertex="1">
          <mxGeometry x="149.5" y="980" width="40" height="40" as="geometry" />
        </mxCell>
        <mxCell id="LT-kfasHor7iDB0tDRMl-287" value="2" style="whiteSpace=wrap;html=1;aspect=fixed;fontSize=17;fontFamily=Verdana;fontStyle=1;fontColor=#AFB9C7;fillColor=#383E47;rounded=1;" parent="LT-kfasHor7iDB0tDRMl-1" vertex="1">
          <mxGeometry x="189.5" y="955" width="40" height="40" as="geometry" />
        </mxCell>
        <mxCell id="LT-kfasHor7iDB0tDRMl-288" value="3" style="whiteSpace=wrap;html=1;aspect=fixed;fontSize=17;fontFamily=Verdana;fontStyle=1;fontColor=#AFB9C7;fillColor=#383E47;rounded=1;" parent="LT-kfasHor7iDB0tDRMl-1" vertex="1">
          <mxGeometry x="230" y="940" width="40" height="40" as="geometry" />
        </mxCell>
        <mxCell id="LT-kfasHor7iDB0tDRMl-289" value="4" style="whiteSpace=wrap;html=1;aspect=fixed;fontSize=17;fontFamily=Verdana;fontStyle=1;fontColor=#AFB9C7;fillColor=#383E47;rounded=1;" parent="LT-kfasHor7iDB0tDRMl-1" vertex="1">
          <mxGeometry x="270" y="955" width="40" height="40" as="geometry" />
        </mxCell>
        <mxCell id="LT-kfasHor7iDB0tDRMl-290" value="5" style="whiteSpace=wrap;html=1;aspect=fixed;fontSize=17;fontFamily=Verdana;fontStyle=1;fontColor=#AFB9C7;fillColor=#383E47;rounded=1;" parent="LT-kfasHor7iDB0tDRMl-1" vertex="1">
          <mxGeometry x="310" y="963" width="40" height="40" as="geometry" />
        </mxCell>
        <mxCell id="LT-kfasHor7iDB0tDRMl-294" value="9" style="whiteSpace=wrap;html=1;aspect=fixed;fontSize=17;fontFamily=Verdana;fontStyle=1;fontColor=#000000;fillColor=#FFB366;rounded=1;strokeColor=#D79B00;" parent="LT-kfasHor7iDB0tDRMl-1" vertex="1">
          <mxGeometry x="270" y="995" width="40" height="40" as="geometry" />
        </mxCell>
        <mxCell id="LT-kfasHor7iDB0tDRMl-295" value="&lt;font color=&quot;#AFB9C7&quot;&gt;0&lt;/font&gt;" style="whiteSpace=wrap;html=1;aspect=fixed;fontSize=17;fontFamily=Verdana;fontStyle=1;fontColor=#AFB9C7;fillColor=#383E47;rounded=1;" parent="LT-kfasHor7iDB0tDRMl-1" vertex="1">
          <mxGeometry x="310" y="1003" width="40" height="40" as="geometry" />
        </mxCell>
        <mxCell id="LT-kfasHor7iDB0tDRMl-297" value="" style="whiteSpace=wrap;html=1;aspect=fixed;fontSize=17;fontFamily=Verdana;fontStyle=1;fontColor=#AFB9C7;fillColor=#383E47;rounded=1;" parent="LT-kfasHor7iDB0tDRMl-1" vertex="1">
          <mxGeometry x="190" y="1035" width="40" height="40" as="geometry" />
        </mxCell>
        <mxCell id="LT-kfasHor7iDB0tDRMl-298" value="" style="whiteSpace=wrap;html=1;aspect=fixed;fontSize=14;fontFamily=Verdana;fontStyle=1;fontColor=#AFB9C7;fillColor=#383E47;rounded=1;" parent="LT-kfasHor7iDB0tDRMl-1" vertex="1">
          <mxGeometry x="230" y="1020" width="40" height="40" as="geometry" />
        </mxCell>
        <mxCell id="LT-kfasHor7iDB0tDRMl-299" value="" style="whiteSpace=wrap;html=1;aspect=fixed;fontSize=17;fontFamily=Verdana;fontStyle=1;fontColor=#AFB9C7;fillColor=#383E47;rounded=1;" parent="LT-kfasHor7iDB0tDRMl-1" vertex="1">
          <mxGeometry x="270" y="1035" width="40" height="40" as="geometry" />
        </mxCell>
        <mxCell id="LT-kfasHor7iDB0tDRMl-300" value="=" style="whiteSpace=wrap;html=1;aspect=fixed;fontSize=17;fontFamily=Verdana;fontStyle=1;fontColor=#AFB9C7;fillColor=#383E47;rounded=1;" parent="LT-kfasHor7iDB0tDRMl-1" vertex="1">
          <mxGeometry x="310" y="1043" width="40" height="40" as="geometry" />
        </mxCell>
        <mxCell id="LT-kfasHor7iDB0tDRMl-301" value="num" style="whiteSpace=wrap;html=1;aspect=fixed;rotation=15;fontSize=14;fontFamily=Verdana;fontStyle=1;fontColor=#FFFFFF;fillColor=none;rounded=1;strokeColor=#F0F0F0;dashed=1;" parent="LT-kfasHor7iDB0tDRMl-1" vertex="1">
          <mxGeometry x="290" y="1089" width="40" height="40" as="geometry" />
        </mxCell>
        <mxCell id="LT-kfasHor7iDB0tDRMl-302" value="Spc" style="whiteSpace=wrap;html=1;aspect=fixed;rotation=30;fontSize=14;fontFamily=Verdana;fontStyle=1;fontColor=#AFB9C7;fillColor=#383E47;rounded=1;strokeColor=#F0F0F0;" parent="LT-kfasHor7iDB0tDRMl-1" vertex="1">
          <mxGeometry x="338" y="1107" width="40" height="40" as="geometry" />
        </mxCell>
        <mxCell id="LT-kfasHor7iDB0tDRMl-303" value="6" style="whiteSpace=wrap;html=1;aspect=fixed;fontSize=17;fontFamily=Verdana;fontStyle=1;fontColor=#AFB9C7;fillColor=#383E47;rounded=1;" parent="LT-kfasHor7iDB0tDRMl-1" vertex="1">
          <mxGeometry x="478" y="963" width="40" height="40" as="geometry" />
        </mxCell>
        <mxCell id="LT-kfasHor7iDB0tDRMl-304" value="7" style="whiteSpace=wrap;html=1;aspect=fixed;fontSize=17;fontFamily=Verdana;fontStyle=1;fontColor=#AFB9C7;fillColor=#383E47;rounded=1;" parent="LT-kfasHor7iDB0tDRMl-1" vertex="1">
          <mxGeometry x="518" y="955" width="40" height="40" as="geometry" />
        </mxCell>
        <mxCell id="LT-kfasHor7iDB0tDRMl-305" value="8" style="whiteSpace=wrap;html=1;aspect=fixed;fontSize=17;fontFamily=Verdana;fontStyle=1;fontColor=#AFB9C7;fillColor=#383E47;rounded=1;" parent="LT-kfasHor7iDB0tDRMl-1" vertex="1">
          <mxGeometry x="558" y="940" width="40" height="40" as="geometry" />
        </mxCell>
        <mxCell id="LT-kfasHor7iDB0tDRMl-306" value="9" style="whiteSpace=wrap;html=1;aspect=fixed;fontSize=17;fontFamily=Verdana;fontStyle=1;fontColor=#AFB9C7;fillColor=#383E47;rounded=1;" parent="LT-kfasHor7iDB0tDRMl-1" vertex="1">
          <mxGeometry x="598" y="955" width="40" height="40" as="geometry" />
        </mxCell>
        <mxCell id="LT-kfasHor7iDB0tDRMl-307" value="0" style="whiteSpace=wrap;html=1;aspect=fixed;fontSize=17;fontFamily=Verdana;fontStyle=1;fontColor=#AFB9C7;fillColor=#383E47;rounded=1;" parent="LT-kfasHor7iDB0tDRMl-1" vertex="1">
          <mxGeometry x="638" y="980" width="40" height="40" as="geometry" />
        </mxCell>
        <mxCell id="LT-kfasHor7iDB0tDRMl-308" value="-" style="whiteSpace=wrap;html=1;aspect=fixed;fontSize=17;fontFamily=Verdana;fontStyle=1;fontColor=#AFB9C7;fillColor=#383E47;rounded=1;" parent="LT-kfasHor7iDB0tDRMl-1" vertex="1">
          <mxGeometry x="478" y="1003" width="40" height="40" as="geometry" />
        </mxCell>
        <mxCell id="LT-kfasHor7iDB0tDRMl-309" value="4" style="whiteSpace=wrap;html=1;aspect=fixed;fontSize=17;fontFamily=Verdana;fontStyle=1;fontColor=#000000;fillColor=#FFB366;rounded=1;strokeColor=#D79B00;" parent="LT-kfasHor7iDB0tDRMl-1" vertex="1">
          <mxGeometry x="518" y="995" width="40" height="40" as="geometry" />
        </mxCell>
        <mxCell id="LT-kfasHor7iDB0tDRMl-310" value="5" style="whiteSpace=wrap;html=1;aspect=fixed;fontSize=17;fontFamily=Verdana;fontStyle=1;fontColor=#000000;fillColor=#FFB366;rounded=1;strokeColor=#D79B00;" parent="LT-kfasHor7iDB0tDRMl-1" vertex="1">
          <mxGeometry x="558" y="980" width="40" height="40" as="geometry" />
        </mxCell>
        <mxCell id="LT-kfasHor7iDB0tDRMl-311" value="6" style="whiteSpace=wrap;html=1;aspect=fixed;fontSize=17;fontFamily=Verdana;fontStyle=1;fontColor=#000000;fillColor=#FFB366;rounded=1;strokeColor=#D79B00;" parent="LT-kfasHor7iDB0tDRMl-1" vertex="1">
          <mxGeometry x="597.5" y="995" width="40" height="40" as="geometry" />
        </mxCell>
        <mxCell id="LT-kfasHor7iDB0tDRMl-312" value="," style="whiteSpace=wrap;html=1;aspect=fixed;fontSize=17;fontFamily=Verdana;fontStyle=1;fontColor=#000000;fillColor=#FFB366;rounded=1;strokeColor=#D79B00;" parent="LT-kfasHor7iDB0tDRMl-1" vertex="1">
          <mxGeometry x="638" y="1020" width="40" height="40" as="geometry" />
        </mxCell>
        <mxCell id="LT-kfasHor7iDB0tDRMl-313" value="+" style="whiteSpace=wrap;html=1;aspect=fixed;fontSize=14;fontFamily=Verdana;fontStyle=1;fontColor=#AFB9C7;fillColor=#383E47;rounded=1;" parent="LT-kfasHor7iDB0tDRMl-1" vertex="1">
          <mxGeometry x="477.5" y="1043" width="40" height="40" as="geometry" />
        </mxCell>
        <mxCell id="LT-kfasHor7iDB0tDRMl-314" value="1" style="whiteSpace=wrap;html=1;aspect=fixed;fontSize=17;fontFamily=Verdana;fontStyle=1;fontColor=#AFB9C7;fillColor=#383E47;rounded=1;" parent="LT-kfasHor7iDB0tDRMl-1" vertex="1">
          <mxGeometry x="518" y="1035" width="40" height="40" as="geometry" />
        </mxCell>
        <mxCell id="LT-kfasHor7iDB0tDRMl-315" value="2" style="whiteSpace=wrap;html=1;aspect=fixed;fontSize=17;fontFamily=Verdana;fontStyle=1;fontColor=#AFB9C7;fillColor=#383E47;rounded=1;" parent="LT-kfasHor7iDB0tDRMl-1" vertex="1">
          <mxGeometry x="558" y="1020" width="40" height="40" as="geometry" />
        </mxCell>
        <mxCell id="LT-kfasHor7iDB0tDRMl-316" value="3" style="whiteSpace=wrap;html=1;aspect=fixed;fontSize=17;fontFamily=Verdana;fontStyle=1;fontColor=#AFB9C7;fillColor=#383E47;rounded=1;" parent="LT-kfasHor7iDB0tDRMl-1" vertex="1">
          <mxGeometry x="598" y="1035" width="40" height="40" as="geometry" />
        </mxCell>
        <mxCell id="LT-kfasHor7iDB0tDRMl-317" value="." style="whiteSpace=wrap;html=1;aspect=fixed;fontSize=17;fontFamily=Verdana;fontStyle=1;fontColor=#AFB9C7;fillColor=#383E47;rounded=1;" parent="LT-kfasHor7iDB0tDRMl-1" vertex="1">
          <mxGeometry x="638" y="1060" width="40" height="40" as="geometry" />
        </mxCell>
        <mxCell id="LT-kfasHor7iDB0tDRMl-318" value="bs" style="whiteSpace=wrap;html=1;aspect=fixed;rotation=-30;fontSize=17;fontFamily=Verdana;fontStyle=1;fontColor=#AFB9C7;fillColor=#383E47;strokeColor=#F0F0F0;rounded=1;shadow=0;glass=0;sketch=0;" parent="LT-kfasHor7iDB0tDRMl-1" vertex="1">
          <mxGeometry x="450" y="1107" width="40" height="40" as="geometry" />
        </mxCell>
        <mxCell id="LT-kfasHor7iDB0tDRMl-319" value="0" style="whiteSpace=wrap;html=1;aspect=fixed;rotation=-15;fontSize=17;fontFamily=Verdana;fontStyle=1;fontColor=#AFB9C7;fillColor=#383E47;strokeColor=#F0F0F0;rounded=1;shadow=0;glass=0;sketch=0;" parent="LT-kfasHor7iDB0tDRMl-1" vertex="1">
          <mxGeometry x="498" y="1089" width="40" height="40" as="geometry" />
        </mxCell>
        <mxCell id="LT-kfasHor7iDB0tDRMl-320" value="num" style="rounded=0;whiteSpace=wrap;html=1;fontFamily=Verdana;fontSize=17;fontStyle=1;fillColor=#6A00FF;strokeColor=#3700CC;fontColor=#ffffff;" parent="LT-kfasHor7iDB0tDRMl-1" vertex="1">
          <mxGeometry x="308.5" y="910" width="210" height="30" as="geometry" />
        </mxCell>
        <mxCell id="LT-kfasHor7iDB0tDRMl-321" value="Esc" style="whiteSpace=wrap;html=1;aspect=fixed;fontSize=17;fontFamily=Verdana;fontStyle=1;fontColor=#AFB9C7;fillColor=#383E47;rounded=1;" parent="LT-kfasHor7iDB0tDRMl-1" vertex="1">
          <mxGeometry x="150" y="730" width="40" height="40" as="geometry" />
        </mxCell>
        <mxCell id="LT-kfasHor7iDB0tDRMl-322" value="&lt;font style=&quot;font-size: 11px;&quot;&gt;Select &lt;br&gt;BlueTooth&lt;br&gt;profile&lt;/font&gt;" style="text;html=1;strokeColor=none;fillColor=none;align=center;verticalAlign=middle;whiteSpace=wrap;rounded=0;shadow=0;glass=0;sketch=0;fontFamily=Verdana;fontSize=14;fontColor=#3399FF;" parent="LT-kfasHor7iDB0tDRMl-1" vertex="1">
          <mxGeometry x="135" y="1236" width="70" height="50" as="geometry" />
        </mxCell>
        <mxCell id="LT-kfasHor7iDB0tDRMl-323" value="&lt;span style=&quot;font-size: 11px;&quot;&gt;unpair the current &lt;br&gt;BT profile&lt;/span&gt;" style="text;html=1;strokeColor=none;fillColor=none;align=center;verticalAlign=middle;whiteSpace=wrap;rounded=0;shadow=0;glass=0;sketch=0;fontFamily=Verdana;fontSize=14;fontColor=#3399FF;" parent="LT-kfasHor7iDB0tDRMl-1" vertex="1">
          <mxGeometry x="13" y="1360" width="111" height="40" as="geometry" />
        </mxCell>
        <mxCell id="LT-kfasHor7iDB0tDRMl-325" value="Sym" style="whiteSpace=wrap;html=1;aspect=fixed;rotation=15;fontSize=17;fontFamily=Verdana;fontStyle=1;fillColor=#a20025;strokeColor=#6F0000;fontColor=#ffffff;rounded=1;" parent="LT-kfasHor7iDB0tDRMl-1" vertex="1">
          <mxGeometry x="290" y="246" width="40" height="40" as="geometry" />
        </mxCell>
        <mxCell id="LT-kfasHor7iDB0tDRMl-326" value="Spc" style="whiteSpace=wrap;html=1;aspect=fixed;rotation=30;fontSize=17;fontFamily=Verdana;fontStyle=1;fontColor=#AFB9C7;fillColor=#383E47;rounded=1;align=center;verticalAlign=middle;" parent="LT-kfasHor7iDB0tDRMl-1" vertex="1">
          <mxGeometry x="338" y="264" width="40" height="40" as="geometry" />
        </mxCell>
        <mxCell id="LT-kfasHor7iDB0tDRMl-327" value="fnc&lt;br&gt;nav" style="whiteSpace=wrap;html=1;aspect=fixed;rotation=-15;fontSize=17;fontFamily=Verdana;fontStyle=1;fillColor=#1ba1e2;strokeColor=#006EAF;fontColor=#ffffff;rounded=1;" parent="LT-kfasHor7iDB0tDRMl-1" vertex="1">
          <mxGeometry x="498" y="246" width="40" height="40" as="geometry" />
        </mxCell>
        <mxCell id="LT-kfasHor7iDB0tDRMl-328" value="Sym" style="whiteSpace=wrap;html=1;aspect=fixed;rotation=15;fontSize=17;fontFamily=Verdana;fontStyle=1;fillColor=#a20025;strokeColor=#6F0000;fontColor=#ffffff;rounded=1;" parent="LT-kfasHor7iDB0tDRMl-1" vertex="1">
          <mxGeometry x="290" y="246" width="40" height="40" as="geometry" />
        </mxCell>
        <mxCell id="LT-kfasHor7iDB0tDRMl-329" value="Spc" style="whiteSpace=wrap;html=1;aspect=fixed;rotation=30;fontSize=17;fontFamily=Verdana;fontStyle=1;fontColor=#AFB9C7;fillColor=#383E47;rounded=1;align=center;verticalAlign=middle;" parent="LT-kfasHor7iDB0tDRMl-1" vertex="1">
          <mxGeometry x="338" y="264" width="40" height="40" as="geometry" />
        </mxCell>
        <mxCell id="LT-kfasHor7iDB0tDRMl-330" value="fnc&lt;br&gt;nav" style="whiteSpace=wrap;html=1;aspect=fixed;rotation=-15;fontSize=17;fontFamily=Verdana;fontStyle=1;fillColor=#1ba1e2;strokeColor=#006EAF;fontColor=#ffffff;rounded=1;" parent="LT-kfasHor7iDB0tDRMl-1" vertex="1">
          <mxGeometry x="498" y="246" width="40" height="40" as="geometry" />
        </mxCell>
        <mxCell id="LT-kfasHor7iDB0tDRMl-331" value="Sym" style="whiteSpace=wrap;html=1;aspect=fixed;rotation=15;fontSize=17;fontFamily=Verdana;fontStyle=1;fillColor=#a20025;strokeColor=#6F0000;fontColor=#ffffff;rounded=1;" parent="LT-kfasHor7iDB0tDRMl-1" vertex="1">
          <mxGeometry x="290" y="246" width="40" height="40" as="geometry" />
        </mxCell>
        <mxCell id="LT-kfasHor7iDB0tDRMl-332" value="Spc" style="whiteSpace=wrap;html=1;aspect=fixed;rotation=30;fontSize=17;fontFamily=Verdana;fontStyle=1;fontColor=#AFB9C7;fillColor=#383E47;rounded=1;align=center;verticalAlign=middle;" parent="LT-kfasHor7iDB0tDRMl-1" vertex="1">
          <mxGeometry x="338" y="264" width="40" height="40" as="geometry" />
        </mxCell>
        <mxCell id="LT-kfasHor7iDB0tDRMl-333" value="fnc&lt;br&gt;nav" style="whiteSpace=wrap;html=1;aspect=fixed;rotation=-15;fontSize=17;fontFamily=Verdana;fontStyle=1;fillColor=#1ba1e2;strokeColor=#006EAF;fontColor=#ffffff;rounded=1;" parent="LT-kfasHor7iDB0tDRMl-1" vertex="1">
          <mxGeometry x="498" y="246" width="40" height="40" as="geometry" />
        </mxCell>
        <mxCell id="LT-kfasHor7iDB0tDRMl-334" value="Sym" style="whiteSpace=wrap;html=1;aspect=fixed;rotation=15;fontSize=17;fontFamily=Verdana;fontStyle=1;fillColor=#a20025;strokeColor=#6F0000;fontColor=#ffffff;rounded=1;" parent="LT-kfasHor7iDB0tDRMl-1" vertex="1">
          <mxGeometry x="290" y="246" width="40" height="40" as="geometry" />
        </mxCell>
        <mxCell id="LT-kfasHor7iDB0tDRMl-335" value="Spc" style="whiteSpace=wrap;html=1;aspect=fixed;rotation=30;fontSize=17;fontFamily=Verdana;fontStyle=1;fontColor=#AFB9C7;fillColor=#383E47;rounded=1;align=center;verticalAlign=middle;" parent="LT-kfasHor7iDB0tDRMl-1" vertex="1">
          <mxGeometry x="338" y="264" width="40" height="40" as="geometry" />
        </mxCell>
        <mxCell id="LT-kfasHor7iDB0tDRMl-336" value="fnc&lt;br&gt;nav" style="whiteSpace=wrap;html=1;aspect=fixed;rotation=-15;fontSize=17;fontFamily=Verdana;fontStyle=1;fillColor=#1ba1e2;strokeColor=#006EAF;fontColor=#ffffff;rounded=1;" parent="LT-kfasHor7iDB0tDRMl-1" vertex="1">
          <mxGeometry x="498" y="246" width="40" height="40" as="geometry" />
        </mxCell>
        <mxCell id="LT-kfasHor7iDB0tDRMl-338" value="Sym" style="whiteSpace=wrap;html=1;aspect=fixed;rotation=15;fontSize=17;fontFamily=Verdana;fontStyle=1;fillColor=#a20025;strokeColor=#6F0000;fontColor=#ffffff;rounded=1;" parent="LT-kfasHor7iDB0tDRMl-1" vertex="1">
          <mxGeometry x="290" y="246" width="40" height="40" as="geometry" />
        </mxCell>
        <mxCell id="LT-kfasHor7iDB0tDRMl-339" value="Spc" style="whiteSpace=wrap;html=1;aspect=fixed;rotation=30;fontSize=17;fontFamily=Verdana;fontStyle=1;fontColor=#AFB9C7;fillColor=#383E47;rounded=1;align=center;verticalAlign=middle;" parent="LT-kfasHor7iDB0tDRMl-1" vertex="1">
          <mxGeometry x="338" y="264" width="40" height="40" as="geometry" />
        </mxCell>
        <mxCell id="LT-kfasHor7iDB0tDRMl-340" value="fnc&lt;br&gt;nav" style="whiteSpace=wrap;html=1;aspect=fixed;rotation=-15;fontSize=17;fontFamily=Verdana;fontStyle=1;fillColor=#1ba1e2;strokeColor=#006EAF;fontColor=#ffffff;rounded=1;" parent="LT-kfasHor7iDB0tDRMl-1" vertex="1">
          <mxGeometry x="498" y="246" width="40" height="40" as="geometry" />
        </mxCell>
        <mxCell id="LT-kfasHor7iDB0tDRMl-342" value="&lt;span style=&quot;color: rgb(255, 255, 255);&quot;&gt;Ext&lt;/span&gt;" style="whiteSpace=wrap;html=1;aspect=fixed;rotation=15;fontSize=17;fontFamily=Verdana;fontStyle=1;fontColor=#333333;fillColor=#60A917;strokeColor=#2D7600;rounded=1;shadow=0;glass=0;sketch=0;" parent="LT-kfasHor7iDB0tDRMl-1" vertex="1">
          <mxGeometry x="290" y="799" width="40" height="40" as="geometry" />
        </mxCell>
        <mxCell id="LT-kfasHor7iDB0tDRMl-343" value="&lt;div&gt;tab&lt;/div&gt;(num)" style="whiteSpace=wrap;html=1;aspect=fixed;rotation=15;fontSize=14;fontFamily=Verdana;fontStyle=1;fillColor=#6A00FF;strokeColor=#3700CC;fontColor=#ffffff;rounded=1;" parent="LT-kfasHor7iDB0tDRMl-1" vertex="1">
          <mxGeometry x="290" y="246" width="40" height="40" as="geometry" />
        </mxCell>
        <mxCell id="LT-kfasHor7iDB0tDRMl-344" value="Spc" style="whiteSpace=wrap;html=1;aspect=fixed;rotation=30;fontSize=14;fontFamily=Verdana;fontStyle=1;fontColor=#AFB9C7;fillColor=#383E47;rounded=1;align=center;verticalAlign=middle;strokeColor=#AFB9C7;" parent="LT-kfasHor7iDB0tDRMl-1" vertex="1">
          <mxGeometry x="338" y="264" width="40" height="40" as="geometry" />
        </mxCell>
        <mxCell id="JH4h7ArU-uEL8mOP_6Qb-164" style="rounded=1;orthogonalLoop=1;jettySize=auto;html=1;fontSize=14;fontColor=#F0F0F0;exitX=0.5;exitY=1;exitDx=0;exitDy=0;edgeStyle=orthogonalEdgeStyle;" parent="LT-kfasHor7iDB0tDRMl-1" source="LT-kfasHor7iDB0tDRMl-345" target="JH4h7ArU-uEL8mOP_6Qb-161" edge="1">
          <mxGeometry relative="1" as="geometry">
            <Array as="points">
              <mxPoint x="480" y="310" />
            </Array>
          </mxGeometry>
        </mxCell>
        <mxCell id="LT-kfasHor7iDB0tDRMl-345" value="bs&lt;br&gt;&lt;div&gt;(sym)&lt;/div&gt;" style="whiteSpace=wrap;html=1;aspect=fixed;rotation=-30;fontSize=14;fontFamily=Verdana;fontStyle=1;fontColor=#ffffff;fillColor=#A20025;rounded=1;strokeColor=#6F0000;" parent="LT-kfasHor7iDB0tDRMl-1" vertex="1">
          <mxGeometry x="450" y="264" width="40" height="40" as="geometry" />
        </mxCell>
        <mxCell id="JH4h7ArU-uEL8mOP_6Qb-165" style="edgeStyle=orthogonalEdgeStyle;rounded=1;orthogonalLoop=1;jettySize=auto;html=1;fontSize=14;fontColor=#F0F0F0;exitX=0.5;exitY=1;exitDx=0;exitDy=0;" parent="LT-kfasHor7iDB0tDRMl-1" source="LT-kfasHor7iDB0tDRMl-346" target="JH4h7ArU-uEL8mOP_6Qb-161" edge="1">
          <mxGeometry relative="1" as="geometry">
            <Array as="points">
              <mxPoint x="523" y="310" />
            </Array>
          </mxGeometry>
        </mxCell>
        <mxCell id="LT-kfasHor7iDB0tDRMl-346" value="Esc&lt;br style=&quot;font-size: 14px;&quot;&gt;(nav)" style="whiteSpace=wrap;html=1;aspect=fixed;rotation=-15;fontSize=14;fontFamily=Verdana;fontStyle=1;fillColor=#1ba1e2;strokeColor=#006EAF;fontColor=#F0F0F0;rounded=1;" parent="LT-kfasHor7iDB0tDRMl-1" vertex="1">
          <mxGeometry x="498" y="246" width="40" height="40" as="geometry" />
        </mxCell>
        <mxCell id="LT-kfasHor7iDB0tDRMl-347" value="&lt;span style=&quot;font-size: 14px;&quot;&gt;Spc&lt;/span&gt;" style="whiteSpace=wrap;html=1;aspect=fixed;rotation=30;fontSize=14;fontFamily=Verdana;fontStyle=1;fontColor=#AFB9C7;fillColor=#383E47;strokeColor=#F0F0F0;rounded=1;" parent="LT-kfasHor7iDB0tDRMl-1" vertex="1">
          <mxGeometry x="338" y="545" width="40" height="40" as="geometry" />
        </mxCell>
        <mxCell id="LT-kfasHor7iDB0tDRMl-348" value="&lt;span style=&quot;font-size: 14px;&quot;&gt;&lt;font color=&quot;#ffffff&quot;&gt;sym&lt;/font&gt;&lt;br style=&quot;font-size: 14px;&quot;&gt;&lt;/span&gt;" style="whiteSpace=wrap;html=1;aspect=fixed;rotation=-30;fontSize=14;fontFamily=Verdana;fontStyle=1;fontColor=#AFB9C7;fillColor=none;rounded=1;strokeColor=#F0F0F0;gradientColor=none;dashed=1;" parent="LT-kfasHor7iDB0tDRMl-1" vertex="1">
          <mxGeometry x="449" y="545" width="40" height="40" as="geometry" />
        </mxCell>
        <mxCell id="LT-kfasHor7iDB0tDRMl-350" value="" style="whiteSpace=wrap;html=1;aspect=fixed;rotation=15;fontSize=14;fontFamily=Verdana;fontStyle=1;fontColor=#333333;fillColor=#383E47;strokeColor=#F0F0F0;rounded=1;shadow=0;glass=0;sketch=0;" parent="LT-kfasHor7iDB0tDRMl-1" vertex="1">
          <mxGeometry x="290" y="799" width="40" height="40" as="geometry" />
        </mxCell>
        <mxCell id="LT-kfasHor7iDB0tDRMl-351" style="edgeStyle=orthogonalEdgeStyle;rounded=1;orthogonalLoop=1;jettySize=auto;html=1;fontSize=11;strokeColor=#6C8EBF;exitX=1;exitY=0.5;exitDx=0;exitDy=0;entryX=0;entryY=0.5;entryDx=0;entryDy=0;" parent="LT-kfasHor7iDB0tDRMl-1" source="LT-kfasHor7iDB0tDRMl-323" target="JH4h7ArU-uEL8mOP_6Qb-36" edge="1">
          <mxGeometry relative="1" as="geometry">
            <mxPoint x="180.5" y="1140" as="sourcePoint" />
            <mxPoint x="170.5" y="1100" as="targetPoint" />
          </mxGeometry>
        </mxCell>
        <mxCell id="LT-kfasHor7iDB0tDRMl-352" value="&lt;div style=&quot;text-align: center;&quot;&gt;&lt;span style=&quot;background-color: initial; font-size: 11px;&quot;&gt;&lt;font face=&quot;Verdana&quot; color=&quot;#3399ff&quot;&gt;Toggle between USB and BLE output if cable is connected&lt;/font&gt;&lt;/span&gt;&lt;/div&gt;" style="text;whiteSpace=wrap;html=1;fontSize=14;fontColor=#AFB9C7;" parent="LT-kfasHor7iDB0tDRMl-1" vertex="1">
          <mxGeometry x="95" y="1469" width="150" height="60" as="geometry" />
        </mxCell>
        <mxCell id="LT-kfasHor7iDB0tDRMl-353" style="edgeStyle=orthogonalEdgeStyle;rounded=1;orthogonalLoop=1;jettySize=auto;html=1;fontSize=11;strokeColor=#6C8EBF;exitX=0.5;exitY=0;exitDx=0;exitDy=0;entryX=0.5;entryY=1;entryDx=0;entryDy=0;" parent="LT-kfasHor7iDB0tDRMl-1" source="LT-kfasHor7iDB0tDRMl-352" target="JH4h7ArU-uEL8mOP_6Qb-5" edge="1">
          <mxGeometry relative="1" as="geometry">
            <mxPoint x="160" y="1140" as="sourcePoint" />
            <mxPoint x="180.5" y="1110" as="targetPoint" />
          </mxGeometry>
        </mxCell>
        <mxCell id="e6_0qdJsbhju6Yro8Uu5-0" value="&lt;b&gt;Settings&lt;/b&gt;" style="rounded=0;whiteSpace=wrap;html=1;fontFamily=Verdana;fontSize=17;fillColor=#FF9933;strokeColor=#666600;fontStyle=0;fontColor=#ffffff;" parent="LT-kfasHor7iDB0tDRMl-1" vertex="1">
          <mxGeometry x="309.5" y="1250" width="210" height="30" as="geometry" />
        </mxCell>
        <mxCell id="e6_0qdJsbhju6Yro8Uu5-3" value="BT 2" style="whiteSpace=wrap;html=1;aspect=fixed;fontSize=14;fontFamily=Verdana;fontStyle=1;fontColor=#383E47;fillColor=#5C8CCA;rounded=1;strokeColor=#5C8CCA;" parent="LT-kfasHor7iDB0tDRMl-1" vertex="1">
          <mxGeometry x="230" y="1280" width="40" height="40" as="geometry" />
        </mxCell>
        <mxCell id="e6_0qdJsbhju6Yro8Uu5-4" value="BT 3" style="whiteSpace=wrap;html=1;aspect=fixed;fontSize=14;fontFamily=Verdana;fontStyle=1;fontColor=#383E47;fillColor=#5C8CCA;rounded=1;strokeColor=#5C8CCA;" parent="LT-kfasHor7iDB0tDRMl-1" vertex="1">
          <mxGeometry x="269.5" y="1295" width="40" height="40" as="geometry" />
        </mxCell>
        <mxCell id="e6_0qdJsbhju6Yro8Uu5-5" value="BT 4" style="whiteSpace=wrap;html=1;aspect=fixed;fontSize=14;fontFamily=Verdana;fontStyle=1;fontColor=#383E47;fillColor=#5C8CCA;rounded=1;strokeColor=#5C8CCA;" parent="LT-kfasHor7iDB0tDRMl-1" vertex="1">
          <mxGeometry x="309.5" y="1303" width="40" height="40" as="geometry" />
        </mxCell>
        <mxCell id="e6_0qdJsbhju6Yro8Uu5-8" value="" style="whiteSpace=wrap;html=1;aspect=fixed;fontSize=17;fontFamily=Verdana;fontStyle=1;fontColor=#AFB9C7;fillColor=#383E47;rounded=1;" parent="LT-kfasHor7iDB0tDRMl-1" vertex="1">
          <mxGeometry x="268.5" y="1335" width="40" height="40" as="geometry" />
        </mxCell>
        <mxCell id="e6_0qdJsbhju6Yro8Uu5-9" value="" style="whiteSpace=wrap;html=1;aspect=fixed;fontSize=17;fontFamily=Verdana;fontStyle=1;fontColor=#AFB9C7;fillColor=#383E47;rounded=1;" parent="LT-kfasHor7iDB0tDRMl-1" vertex="1">
          <mxGeometry x="309.5" y="1343" width="40" height="40" as="geometry" />
        </mxCell>
        <mxCell id="e6_0qdJsbhju6Yro8Uu5-11" value="out&lt;br style=&quot;font-size: 14px;&quot;&gt;usb" style="whiteSpace=wrap;html=1;aspect=fixed;fontSize=14;fontFamily=Verdana;fontStyle=1;fontColor=#AFB9C7;fillColor=#383E47;rounded=1;" parent="LT-kfasHor7iDB0tDRMl-1" vertex="1">
          <mxGeometry x="189.5" y="1375" width="40" height="40" as="geometry" />
        </mxCell>
        <mxCell id="e6_0qdJsbhju6Yro8Uu5-12" value="" style="whiteSpace=wrap;html=1;aspect=fixed;fontSize=17;fontFamily=Verdana;fontStyle=1;fontColor=#AFB9C7;fillColor=#383E47;rounded=1;" parent="LT-kfasHor7iDB0tDRMl-1" vertex="1">
          <mxGeometry x="229.5" y="1360" width="40" height="40" as="geometry" />
        </mxCell>
        <mxCell id="e6_0qdJsbhju6Yro8Uu5-13" value="" style="whiteSpace=wrap;html=1;aspect=fixed;fontSize=17;fontFamily=Verdana;fontStyle=1;fontColor=#AFB9C7;fillColor=#383E47;rounded=1;" parent="LT-kfasHor7iDB0tDRMl-1" vertex="1">
          <mxGeometry x="270" y="1375" width="40" height="40" as="geometry" />
        </mxCell>
        <mxCell id="e6_0qdJsbhju6Yro8Uu5-14" value="BL" style="whiteSpace=wrap;html=1;aspect=fixed;fontSize=14;fontFamily=Verdana;fontStyle=1;fontColor=#AFB9C7;fillColor=#383E47;rounded=1;" parent="LT-kfasHor7iDB0tDRMl-1" vertex="1">
          <mxGeometry x="310" y="1383" width="40" height="40" as="geometry" />
        </mxCell>
        <mxCell id="e6_0qdJsbhju6Yro8Uu5-15" value="&lt;span style=&quot;color: rgb(255, 255, 255);&quot;&gt;Ext&lt;/span&gt;" style="whiteSpace=wrap;html=1;aspect=fixed;rotation=15;fontSize=17;fontFamily=Verdana;fontStyle=1;fontColor=#333333;fillColor=#60A917;strokeColor=#2D7600;rounded=1;shadow=0;glass=0;sketch=0;" parent="LT-kfasHor7iDB0tDRMl-1" vertex="1">
          <mxGeometry x="289.5" y="1429" width="40" height="40" as="geometry" />
        </mxCell>
        <mxCell id="e6_0qdJsbhju6Yro8Uu5-16" value="&lt;div&gt;&lt;font&gt;Spc&lt;/font&gt;&lt;/div&gt;&lt;div&gt;&lt;span style=&quot;font-family: &amp;quot;segoe ui emoji&amp;quot;, &amp;quot;apple color emoji&amp;quot;, &amp;quot;noto color emoji&amp;quot;; font-size: 14px;&quot;&gt;&lt;/span&gt;&lt;/div&gt;&lt;div&gt;&lt;span style=&quot;font-family: &amp;quot;segoe ui emoji&amp;quot;, &amp;quot;apple color emoji&amp;quot;, &amp;quot;noto color emoji&amp;quot;; font-size: 14px;&quot;&gt;&lt;/span&gt;&lt;/div&gt;" style="whiteSpace=wrap;html=1;aspect=fixed;rotation=30;fontSize=14;fontFamily=Verdana;fontStyle=1;fontColor=#AFB9C7;fillColor=#383E47;rounded=1;strokeColor=#F0F0F0;" parent="LT-kfasHor7iDB0tDRMl-1" vertex="1">
          <mxGeometry x="337.5" y="1447" width="40" height="40" as="geometry" />
        </mxCell>
        <mxCell id="e6_0qdJsbhju6Yro8Uu5-17" value="" style="whiteSpace=wrap;html=1;aspect=fixed;fontSize=11;fontFamily=Verdana;fontStyle=1;fontColor=#AFB9C7;fillColor=#383E47;rounded=1;" parent="LT-kfasHor7iDB0tDRMl-1" vertex="1">
          <mxGeometry x="477.5" y="1303" width="40" height="40" as="geometry" />
        </mxCell>
        <mxCell id="e6_0qdJsbhju6Yro8Uu5-18" value="" style="whiteSpace=wrap;html=1;aspect=fixed;fontSize=11;fontFamily=Verdana;fontStyle=1;fontColor=#AFB9C7;fillColor=#383E47;rounded=1;" parent="LT-kfasHor7iDB0tDRMl-1" vertex="1">
          <mxGeometry x="517.5" y="1295" width="40" height="40" as="geometry" />
        </mxCell>
        <mxCell id="e6_0qdJsbhju6Yro8Uu5-19" value="" style="whiteSpace=wrap;html=1;aspect=fixed;fontSize=16;fontFamily=Verdana;fontStyle=1;fontColor=#AFB9C7;fillColor=#383E47;rounded=1;" parent="LT-kfasHor7iDB0tDRMl-1" vertex="1">
          <mxGeometry x="557.5" y="1280" width="40" height="40" as="geometry" />
        </mxCell>
        <mxCell id="e6_0qdJsbhju6Yro8Uu5-20" value="" style="whiteSpace=wrap;html=1;aspect=fixed;fontSize=11;fontFamily=Verdana;fontStyle=1;fontColor=#AFB9C7;fillColor=#383E47;rounded=1;" parent="LT-kfasHor7iDB0tDRMl-1" vertex="1">
          <mxGeometry x="597.5" y="1295" width="40" height="40" as="geometry" />
        </mxCell>
        <mxCell id="e6_0qdJsbhju6Yro8Uu5-21" value="" style="whiteSpace=wrap;html=1;aspect=fixed;fontSize=11;fontFamily=Verdana;fontStyle=1;fontColor=#AFB9C7;fillColor=#383E47;rounded=1;" parent="LT-kfasHor7iDB0tDRMl-1" vertex="1">
          <mxGeometry x="637.5" y="1320" width="40" height="40" as="geometry" />
        </mxCell>
        <mxCell id="e6_0qdJsbhju6Yro8Uu5-22" value="qwerty" style="whiteSpace=wrap;html=1;aspect=fixed;fontSize=11;fontFamily=Verdana;fontStyle=1;fontColor=#AFB9C7;fillColor=#383E47;rounded=1;" parent="LT-kfasHor7iDB0tDRMl-1" vertex="1">
          <mxGeometry x="477.5" y="1343" width="40" height="40" as="geometry" />
        </mxCell>
        <mxCell id="e6_0qdJsbhju6Yro8Uu5-23" value="&lt;div&gt;cole&lt;/div&gt;&lt;div&gt;se&lt;/div&gt;" style="whiteSpace=wrap;html=1;aspect=fixed;fontSize=11;fontFamily=Verdana;fontStyle=1;fontColor=#AFB9C7;fillColor=#383E47;rounded=1;" parent="LT-kfasHor7iDB0tDRMl-1" vertex="1">
          <mxGeometry x="517.5" y="1335" width="40" height="40" as="geometry" />
        </mxCell>
        <mxCell id="e6_0qdJsbhju6Yro8Uu5-24" value="&lt;div&gt;cole&lt;/div&gt;&lt;div&gt;en&lt;br&gt;&lt;/div&gt;" style="whiteSpace=wrap;html=1;aspect=fixed;fontSize=11;fontFamily=Verdana;fontStyle=1;fontColor=#AFB9C7;fillColor=#383E47;rounded=1;" parent="LT-kfasHor7iDB0tDRMl-1" vertex="1">
          <mxGeometry x="557.5" y="1320" width="40" height="40" as="geometry" />
        </mxCell>
        <mxCell id="e6_0qdJsbhju6Yro8Uu5-25" value="&lt;div&gt;game&lt;/div&gt;" style="whiteSpace=wrap;html=1;aspect=fixed;fontSize=11;fontFamily=Verdana;fontStyle=1;fontColor=#AFB9C7;fillColor=#383E47;rounded=1;" parent="LT-kfasHor7iDB0tDRMl-1" vertex="1">
          <mxGeometry x="597.5" y="1335" width="40" height="40" as="geometry" />
        </mxCell>
        <mxCell id="e6_0qdJsbhju6Yro8Uu5-26" value="" style="whiteSpace=wrap;html=1;aspect=fixed;fontSize=11;fontFamily=Verdana;fontStyle=1;fontColor=#AFB9C7;fillColor=#383E47;rounded=1;" parent="LT-kfasHor7iDB0tDRMl-1" vertex="1">
          <mxGeometry x="637.5" y="1360" width="40" height="40" as="geometry" />
        </mxCell>
        <mxCell id="e6_0qdJsbhju6Yro8Uu5-27" value="&lt;span style=&quot;font-size: 14px;&quot;&gt;BL&lt;br&gt;&lt;/span&gt;" style="whiteSpace=wrap;html=1;aspect=fixed;fontSize=17;fontFamily=Verdana;fontStyle=1;fontColor=#AFB9C7;fillColor=#383E47;rounded=1;" parent="LT-kfasHor7iDB0tDRMl-1" vertex="1">
          <mxGeometry x="477.5" y="1383" width="40" height="40" as="geometry" />
        </mxCell>
        <mxCell id="e6_0qdJsbhju6Yro8Uu5-28" value="" style="whiteSpace=wrap;html=1;aspect=fixed;fontSize=17;fontFamily=Verdana;fontStyle=1;fontColor=#AFB9C7;fillColor=#383E47;rounded=1;" parent="LT-kfasHor7iDB0tDRMl-1" vertex="1">
          <mxGeometry x="517.5" y="1375" width="40" height="40" as="geometry" />
        </mxCell>
        <mxCell id="e6_0qdJsbhju6Yro8Uu5-29" value="&lt;font style=&quot;font-size: 11px;&quot;&gt;&lt;br&gt;&lt;/font&gt;" style="whiteSpace=wrap;html=1;aspect=fixed;fontSize=17;fontFamily=Verdana;fontStyle=1;fontColor=#AFB9C7;fillColor=#383E47;rounded=1;" parent="LT-kfasHor7iDB0tDRMl-1" vertex="1">
          <mxGeometry x="557.5" y="1360" width="40" height="40" as="geometry" />
        </mxCell>
        <mxCell id="e6_0qdJsbhju6Yro8Uu5-30" value="" style="whiteSpace=wrap;html=1;aspect=fixed;fontSize=17;fontFamily=Verdana;fontStyle=1;fontColor=#AFB9C7;fillColor=#383E47;rounded=1;" parent="LT-kfasHor7iDB0tDRMl-1" vertex="1">
          <mxGeometry x="597.5" y="1375" width="40" height="40" as="geometry" />
        </mxCell>
        <mxCell id="e6_0qdJsbhju6Yro8Uu5-31" value="" style="whiteSpace=wrap;html=1;aspect=fixed;fontSize=11;fontFamily=Verdana;fontStyle=1;fontColor=#AFB9C7;fillColor=#383E47;rounded=1;" parent="LT-kfasHor7iDB0tDRMl-1" vertex="1">
          <mxGeometry x="637.5" y="1400" width="40" height="40" as="geometry" />
        </mxCell>
        <mxCell id="e6_0qdJsbhju6Yro8Uu5-33" value="" style="whiteSpace=wrap;html=1;aspect=fixed;rotation=-15;fontSize=14;fontFamily=Verdana;fontStyle=1;fontColor=#ffffff;fillColor=none;strokeColor=#F0F0F0;rounded=1;dashed=1;" parent="LT-kfasHor7iDB0tDRMl-1" vertex="1">
          <mxGeometry x="497.5" y="1429" width="40" height="40" as="geometry" />
        </mxCell>
        <mxCell id="e6_0qdJsbhju6Yro8Uu5-37" value="&lt;span style=&quot;color: rgb(255, 255, 255);&quot;&gt;Ext&lt;/span&gt;" style="whiteSpace=wrap;html=1;aspect=fixed;rotation=15;fontSize=17;fontFamily=Verdana;fontStyle=1;fontColor=#333333;fillColor=#60A917;strokeColor=#2D7600;rounded=1;shadow=0;glass=0;sketch=0;" parent="LT-kfasHor7iDB0tDRMl-1" vertex="1">
          <mxGeometry x="289.5" y="1429" width="40" height="40" as="geometry" />
        </mxCell>
        <mxCell id="e6_0qdJsbhju6Yro8Uu5-39" value="" style="whiteSpace=wrap;html=1;aspect=fixed;rotation=15;fontSize=14;fontFamily=Verdana;fontStyle=1;fontColor=#333333;fillColor=#383E47;strokeColor=#F0F0F0;rounded=1;shadow=0;glass=0;sketch=0;" parent="LT-kfasHor7iDB0tDRMl-1" vertex="1">
          <mxGeometry x="289.5" y="1429" width="40" height="40" as="geometry" />
        </mxCell>
        <mxCell id="JH4h7ArU-uEL8mOP_6Qb-0" value="" style="whiteSpace=wrap;html=1;aspect=fixed;rotation=-30;fontSize=14;fontFamily=Verdana;fontStyle=1;fontColor=#FFFFFF;fillColor=none;strokeColor=#F0F0F0;rounded=1;shadow=0;glass=0;sketch=0;dashed=1;" parent="LT-kfasHor7iDB0tDRMl-1" vertex="1">
          <mxGeometry x="449" y="1447" width="40" height="40" as="geometry" />
        </mxCell>
        <mxCell id="JH4h7ArU-uEL8mOP_6Qb-5" value="out&amp;nbsp;&lt;br style=&quot;font-size: 14px;&quot;&gt;BT" style="whiteSpace=wrap;html=1;aspect=fixed;fontSize=14;fontFamily=Verdana;fontStyle=1;fontColor=#AFB9C7;fillColor=#383E47;rounded=1;" parent="LT-kfasHor7iDB0tDRMl-1" vertex="1">
          <mxGeometry x="149.5" y="1400" width="40" height="40" as="geometry" />
        </mxCell>
        <mxCell id="JH4h7ArU-uEL8mOP_6Qb-6" value="" style="whiteSpace=wrap;html=1;aspect=fixed;fontSize=17;fontFamily=Verdana;fontStyle=1;fontColor=#AFB9C7;fillColor=#383E47;rounded=1;" parent="LT-kfasHor7iDB0tDRMl-1" vertex="1">
          <mxGeometry x="190" y="1335" width="40" height="40" as="geometry" />
        </mxCell>
        <mxCell id="JH4h7ArU-uEL8mOP_6Qb-7" value="" style="whiteSpace=wrap;html=1;aspect=fixed;fontSize=17;fontFamily=Verdana;fontStyle=1;fontColor=#AFB9C7;fillColor=#383E47;rounded=1;" parent="LT-kfasHor7iDB0tDRMl-1" vertex="1">
          <mxGeometry x="230" y="1320" width="40" height="40" as="geometry" />
        </mxCell>
        <mxCell id="JH4h7ArU-uEL8mOP_6Qb-36" value="&lt;span style=&quot;font-size: 14px;&quot;&gt;BT&lt;/span&gt;&lt;br style=&quot;font-size: 14px;&quot;&gt;&lt;span style=&quot;font-size: 14px;&quot;&gt;CRL&lt;/span&gt;&lt;span style=&quot;font-family: monospace; font-size: 0px; font-weight: 400; text-align: start;&quot;&gt;3CmxGraphModel%3E%3Croot%3E%3CmxCell%20id%3D%220%22%2F%3E%3CmxCell%20id%3D%221%22%20parent%3D%220%22%2F%3E%3CmxCell%20id%3D%222%22%20value%3D%22BT%26lt%3Bbr%20style%3D%26quot%3Bfont-size%3A%2014px%3B%26quot%3B%26gt%3BCRL%22%20style%3D%22whiteSpace%3Dwrap%3Bhtml%3D1%3Baspect%3Dfixed%3BfontSize%3D14%3BfontFamily%3DVerdana%3BfontStyle%3D1%3BfillColor%3D%235C8CCA%3BstrokeColor%3D%23456893%3BfontColor%3D%23090e14%3Brounded%3D1%3B%22%20vertex%3D%221%22%20parent%3D%221%22%3E%3CmxGeometry%20x%3D%22270%22%20y%3D%22945%22%20width%3D%2240%22%20height%3D%2240%22%20as%3D%22geometry%22%2F%3E%3C%2FmxCell%3E%3C%2Froot%3E%3C%2FmxGraphModel%3E&lt;/span&gt;" style="whiteSpace=wrap;html=1;aspect=fixed;fontSize=14;fontFamily=Verdana;fontStyle=1;fontColor=#383E47;fillColor=#5C8CCA;rounded=1;strokeColor=#5C8CCA;" parent="LT-kfasHor7iDB0tDRMl-1" vertex="1">
          <mxGeometry x="149.5" y="1360" width="40" height="40" as="geometry" />
        </mxCell>
        <mxCell id="JH4h7ArU-uEL8mOP_6Qb-37" value="BT 0" style="whiteSpace=wrap;html=1;aspect=fixed;fontSize=14;fontFamily=Verdana;fontStyle=1;fontColor=#383E47;fillColor=#5C8CCA;rounded=1;strokeColor=#5C8CCA;" parent="LT-kfasHor7iDB0tDRMl-1" vertex="1">
          <mxGeometry x="150" y="1320" width="40" height="40" as="geometry" />
        </mxCell>
        <mxCell id="JH4h7ArU-uEL8mOP_6Qb-38" value="BT 1" style="whiteSpace=wrap;html=1;aspect=fixed;fontSize=14;fontFamily=Verdana;fontStyle=1;fontColor=#383E47;fillColor=#5C8CCA;rounded=1;strokeColor=#5C8CCA;" parent="LT-kfasHor7iDB0tDRMl-1" vertex="1">
          <mxGeometry x="190" y="1295" width="40" height="40" as="geometry" />
        </mxCell>
        <mxCell id="JH4h7ArU-uEL8mOP_6Qb-45" value="7" style="whiteSpace=wrap;html=1;aspect=fixed;fontSize=17;fontFamily=Verdana;fontStyle=1;fontColor=#000000;fillColor=#FFB366;rounded=1;strokeColor=#D79B00;" parent="LT-kfasHor7iDB0tDRMl-1" vertex="1">
          <mxGeometry x="189.5" y="995" width="40" height="40" as="geometry" />
        </mxCell>
        <mxCell id="JH4h7ArU-uEL8mOP_6Qb-52" value="" style="whiteSpace=wrap;html=1;aspect=fixed;fontSize=17;fontFamily=Verdana;fontStyle=1;fontColor=#AFB9C7;fillColor=#383E47;rounded=1;" parent="LT-kfasHor7iDB0tDRMl-1" vertex="1">
          <mxGeometry x="150" y="1060" width="40" height="40" as="geometry" />
        </mxCell>
        <mxCell id="JH4h7ArU-uEL8mOP_6Qb-53" value="6" style="whiteSpace=wrap;html=1;aspect=fixed;fontSize=14;fontFamily=Verdana;fontStyle=1;fontColor=#000000;fillColor=#FFB366;rounded=1;strokeColor=#D79B00;" parent="LT-kfasHor7iDB0tDRMl-1" vertex="1">
          <mxGeometry x="149.5" y="1020" width="40" height="40" as="geometry" />
        </mxCell>
        <mxCell id="JH4h7ArU-uEL8mOP_6Qb-54" value="8" style="whiteSpace=wrap;html=1;aspect=fixed;fontSize=17;fontFamily=Verdana;fontStyle=1;fontColor=#000000;fillColor=#FFB366;rounded=1;strokeColor=#D79B00;" parent="LT-kfasHor7iDB0tDRMl-1" vertex="1">
          <mxGeometry x="230" y="980" width="40" height="40" as="geometry" />
        </mxCell>
        <mxCell id="JH4h7ArU-uEL8mOP_6Qb-161" value="Set" style="whiteSpace=wrap;html=1;aspect=fixed;fontSize=14;fontFamily=Verdana;fontStyle=1;fontColor=#F0F0F0;fillColor=#999900;rounded=1;strokeColor=#666600;" parent="LT-kfasHor7iDB0tDRMl-1" vertex="1">
          <mxGeometry x="580" y="290" width="40" height="40" as="geometry" />
        </mxCell>
        <mxCell id="JH4h7ArU-uEL8mOP_6Qb-166" style="rounded=1;orthogonalLoop=1;jettySize=auto;html=1;fontSize=14;fontColor=#F0F0F0;exitX=0.5;exitY=1;exitDx=0;exitDy=0;edgeStyle=orthogonalEdgeStyle;" parent="LT-kfasHor7iDB0tDRMl-1" target="JH4h7ArU-uEL8mOP_6Qb-168" edge="1">
          <mxGeometry relative="1" as="geometry">
            <mxPoint x="480" y="583.0005080756889" as="sourcePoint" />
            <Array as="points">
              <mxPoint x="480" y="591.6800000000001" />
            </Array>
          </mxGeometry>
        </mxCell>
        <mxCell id="JH4h7ArU-uEL8mOP_6Qb-167" style="edgeStyle=orthogonalEdgeStyle;rounded=1;orthogonalLoop=1;jettySize=auto;html=1;fontSize=14;fontColor=#F0F0F0;exitX=0.5;exitY=1;exitDx=0;exitDy=0;" parent="LT-kfasHor7iDB0tDRMl-1" target="JH4h7ArU-uEL8mOP_6Qb-168" edge="1">
          <mxGeometry relative="1" as="geometry">
            <mxPoint x="523.1763809020504" y="566.9985165257815" as="sourcePoint" />
            <Array as="points">
              <mxPoint x="523" y="591.6800000000001" />
            </Array>
          </mxGeometry>
        </mxCell>
        <mxCell id="JH4h7ArU-uEL8mOP_6Qb-168" value="Set" style="whiteSpace=wrap;html=1;aspect=fixed;fontSize=14;fontFamily=Verdana;fontStyle=1;fontColor=#F0F0F0;fillColor=#999900;rounded=1;strokeColor=#666600;" parent="LT-kfasHor7iDB0tDRMl-1" vertex="1">
          <mxGeometry x="580" y="571.6800000000001" width="40" height="40" as="geometry" />
        </mxCell>
        <mxCell id="JH4h7ArU-uEL8mOP_6Qb-169" style="rounded=1;orthogonalLoop=1;jettySize=auto;html=1;fontSize=14;fontColor=#F0F0F0;exitX=0.5;exitY=1;exitDx=0;exitDy=0;edgeStyle=orthogonalEdgeStyle;" parent="LT-kfasHor7iDB0tDRMl-1" target="JH4h7ArU-uEL8mOP_6Qb-171" edge="1">
          <mxGeometry relative="1" as="geometry">
            <mxPoint x="480" y="855.0005080756888" as="sourcePoint" />
            <Array as="points">
              <mxPoint x="480" y="863.68" />
            </Array>
          </mxGeometry>
        </mxCell>
        <mxCell id="JH4h7ArU-uEL8mOP_6Qb-170" style="edgeStyle=orthogonalEdgeStyle;rounded=1;orthogonalLoop=1;jettySize=auto;html=1;fontSize=14;fontColor=#F0F0F0;exitX=0.5;exitY=1;exitDx=0;exitDy=0;" parent="LT-kfasHor7iDB0tDRMl-1" target="JH4h7ArU-uEL8mOP_6Qb-171" edge="1">
          <mxGeometry relative="1" as="geometry">
            <mxPoint x="523.1763809020504" y="838.9985165257814" as="sourcePoint" />
            <Array as="points">
              <mxPoint x="523" y="863.68" />
            </Array>
          </mxGeometry>
        </mxCell>
        <mxCell id="JH4h7ArU-uEL8mOP_6Qb-171" value="Set" style="whiteSpace=wrap;html=1;aspect=fixed;fontSize=14;fontFamily=Verdana;fontStyle=1;fontColor=#F0F0F0;fillColor=#999900;rounded=1;strokeColor=#666600;" parent="LT-kfasHor7iDB0tDRMl-1" vertex="1">
          <mxGeometry x="580" y="843.68" width="40" height="40" as="geometry" />
        </mxCell>
        <mxCell id="JH4h7ArU-uEL8mOP_6Qb-178" value="Set" style="whiteSpace=wrap;html=1;aspect=fixed;fontSize=14;fontFamily=Verdana;fontStyle=1;fontColor=#F0F0F0;fillColor=#FF9933;rounded=1;strokeColor=#666600;" parent="LT-kfasHor7iDB0tDRMl-1" vertex="1">
          <mxGeometry x="580" y="843.68" width="40" height="40" as="geometry" />
        </mxCell>
        <mxCell id="JH4h7ArU-uEL8mOP_6Qb-179" value="Set" style="whiteSpace=wrap;html=1;aspect=fixed;fontSize=14;fontFamily=Verdana;fontStyle=1;fontColor=#F0F0F0;fillColor=#FF9933;rounded=1;strokeColor=#666600;" parent="LT-kfasHor7iDB0tDRMl-1" vertex="1">
          <mxGeometry x="580" y="571.6800000000001" width="40" height="40" as="geometry" />
        </mxCell>
        <mxCell id="JH4h7ArU-uEL8mOP_6Qb-180" value="Set" style="whiteSpace=wrap;html=1;aspect=fixed;fontSize=14;fontFamily=Verdana;fontStyle=1;fontColor=#F0F0F0;fillColor=#FF9933;rounded=1;strokeColor=#666600;" parent="LT-kfasHor7iDB0tDRMl-1" vertex="1">
          <mxGeometry x="580" y="290" width="40" height="40" as="geometry" />
        </mxCell>
        <mxCell id="JH4h7ArU-uEL8mOP_6Qb-182" value="Set" style="whiteSpace=wrap;html=1;aspect=fixed;fontSize=14;fontFamily=Verdana;fontStyle=1;fontColor=#F0F0F0;fillColor=#FF9933;rounded=1;strokeColor=#666600;" parent="LT-kfasHor7iDB0tDRMl-1" vertex="1">
          <mxGeometry x="580" y="290" width="40" height="40" as="geometry" />
        </mxCell>
        <mxCell id="JH4h7ArU-uEL8mOP_6Qb-183" value="Set" style="whiteSpace=wrap;html=1;aspect=fixed;fontSize=14;fontFamily=Verdana;fontStyle=1;fontColor=#F0F0F0;fillColor=#FF9933;rounded=1;strokeColor=#666600;" parent="LT-kfasHor7iDB0tDRMl-1" vertex="1">
          <mxGeometry x="580" y="571.6800000000001" width="40" height="40" as="geometry" />
        </mxCell>
      </root>
    </mxGraphModel>
  </diagram>
</mxfile>
